%TF.GenerationSoftware,KiCad,Pcbnew,10.0.5*%
%TF.CreationDate,2026-08-03T03:57:14+09:00*%
%TF.ProjectId,coppertone-buffer,636f7070-6572-4746-9f6e-652d62756666,0.1.0-preview*%
%TF.SameCoordinates,Original*%
%TF.FileFunction,Soldermask,Top*%
%TF.FilePolarity,Negative*%
%FSLAX46Y46*%
G04 Gerber Fmt 4.6, Leading zero omitted, Abs format (unit mm)*
G04 Created by KiCad (PCBNEW 10.0.5) date 2026-08-03 03:57:14*
%MOMM*%
%LPD*%
G01*
G04 APERTURE LIST*
G04 Aperture macros list*
%AMRoundRect*
0 Rectangle with rounded corners*
0 $1 Rounding radius*
0 $2 $3 $4 $5 $6 $7 $8 $9 X,Y pos of 4 corners*
0 Add a 4 corners polygon primitive as box body*
4,1,4,$2,$3,$4,$5,$6,$7,$8,$9,$2,$3,0*
0 Add four circle primitives for the rounded corners*
1,1,$1+$1,$2,$3*
1,1,$1+$1,$4,$5*
1,1,$1+$1,$6,$7*
1,1,$1+$1,$8,$9*
0 Add four rect primitives between the rounded corners*
20,1,$1+$1,$2,$3,$4,$5,0*
20,1,$1+$1,$4,$5,$6,$7,0*
20,1,$1+$1,$6,$7,$8,$9,0*
20,1,$1+$1,$8,$9,$2,$3,0*%
G04 Aperture macros list end*
%ADD10RoundRect,0.320000X-0.980000X-0.480000X0.980000X-0.480000X0.980000X0.480000X-0.980000X0.480000X0*%
%ADD11RoundRect,0.240000X-0.360000X-0.460000X0.360000X-0.460000X0.360000X0.460000X-0.360000X0.460000X0*%
%ADD12R,1.700000X1.700000*%
%ADD13C,1.700000*%
%ADD14C,2.000000*%
%ADD15O,3.000000X1.500000*%
%ADD16O,2.500000X3.500000*%
%ADD17O,3.500000X2.500000*%
%ADD18RoundRect,0.120000X-0.180000X-0.855000X0.180000X-0.855000X0.180000X0.855000X-0.180000X0.855000X0*%
%ADD19C,2.700000*%
%ADD20RoundRect,0.320000X-1.430000X-0.480000X1.430000X-0.480000X1.430000X0.480000X-1.430000X0.480000X0*%
%ADD21RoundRect,0.360000X-0.890000X-0.540000X0.890000X-0.540000X0.890000X0.540000X-0.890000X0.540000X0*%
%ADD22C,1.600000*%
G04 APERTURE END LIST*
D10*
%TO.C,C4*%
X35300000Y-9500000D03*
X35300000Y-13100000D03*
%TD*%
D11*
%TO.C,R6*%
X30800000Y-19500000D03*
X33200000Y-19500000D03*
%TD*%
D12*
%TO.C,J3*%
X20000000Y-2000000D03*
D13*
X17460000Y-2000000D03*
%TD*%
D14*
%TO.C,TP1*%
X32000000Y-5000000D03*
%TD*%
D11*
%TO.C,R5*%
X30800000Y-9500000D03*
X33200000Y-9500000D03*
%TD*%
D15*
%TO.C,J1*%
X10600000Y-10000000D03*
D16*
X2300000Y-15000000D03*
D17*
X5800000Y-19500000D03*
%TD*%
D15*
%TO.C,J2*%
X41400000Y-20000000D03*
D16*
X49700000Y-15000000D03*
D17*
X46200000Y-10500000D03*
%TD*%
D14*
%TO.C,TP2*%
X20000000Y-14500000D03*
%TD*%
D18*
%TO.C,U1*%
X29405000Y-12525000D03*
X28135000Y-12525000D03*
X26865000Y-12525000D03*
X25595000Y-12525000D03*
X25595000Y-17475000D03*
X26865000Y-17475000D03*
X28135000Y-17475000D03*
X29405000Y-17475000D03*
%TD*%
D19*
%TO.C,H1*%
X3500000Y-3500000D03*
%TD*%
D20*
%TO.C,C5*%
X18000000Y-12800000D03*
X18000000Y-18200000D03*
%TD*%
D11*
%TO.C,C7*%
X30300000Y-17500000D03*
X32700000Y-17500000D03*
%TD*%
D21*
%TO.C,D1*%
X29000000Y-7000000D03*
X29000000Y-3000000D03*
%TD*%
D11*
%TO.C,R1*%
X22800000Y-12600000D03*
X22800000Y-15000000D03*
%TD*%
%TO.C,R8*%
X44000000Y-6300000D03*
X44000000Y-8700000D03*
%TD*%
D10*
%TO.C,C3*%
X35300000Y-19500000D03*
X35300000Y-23100000D03*
%TD*%
D22*
%TO.C,C1*%
X15800000Y-23500000D03*
X20800000Y-23500000D03*
%TD*%
D19*
%TO.C,H2*%
X48500000Y-26500000D03*
%TD*%
D11*
%TO.C,C6*%
X16300000Y-10500000D03*
X18700000Y-10500000D03*
%TD*%
%TO.C,R4*%
X24500000Y-19800000D03*
X24500000Y-22200000D03*
%TD*%
D10*
%TO.C,C8*%
X11800000Y-4500000D03*
X8200000Y-4500000D03*
%TD*%
D22*
%TO.C,C2*%
X15800000Y-7500000D03*
X20800000Y-7500000D03*
%TD*%
D11*
%TO.C,R2*%
X22800000Y-16000000D03*
X22800000Y-18400000D03*
%TD*%
%TO.C,R7*%
X40000000Y-21800000D03*
X40000000Y-24200000D03*
%TD*%
%TO.C,R3*%
X24500000Y-7800000D03*
X24500000Y-10200000D03*
%TD*%
D14*
%TO.C,TP3*%
X38000000Y-5000000D03*
%TD*%
M02*
