%TF.GenerationSoftware,KiCad,Pcbnew,10.0.5*%
%TF.CreationDate,2026-08-03T03:42:46+09:00*%
%TF.ProjectId,coppertone-buffer,636f7070-6572-4746-9f6e-652d62756666,0.1.0-preview*%
%TF.SameCoordinates,Original*%
%TF.FileFunction,Copper,L2,Bot*%
%TF.FilePolarity,Positive*%
%FSLAX46Y46*%
G04 Gerber Fmt 4.6, Leading zero omitted, Abs format (unit mm)*
G04 Created by KiCad (PCBNEW 10.0.5) date 2026-08-03 03:42:46*
%MOMM*%
%LPD*%
G01*
G04 APERTURE LIST*
%TA.AperFunction,ComponentPad*%
%ADD10C,2.000000*%
%TD*%
%TA.AperFunction,ComponentPad*%
%ADD11O,3.000000X1.500000*%
%TD*%
%TA.AperFunction,ComponentPad*%
%ADD12O,2.500000X3.500000*%
%TD*%
%TA.AperFunction,ComponentPad*%
%ADD13O,3.500000X2.500000*%
%TD*%
%TA.AperFunction,ComponentPad*%
%ADD14R,1.700000X1.700000*%
%TD*%
%TA.AperFunction,ComponentPad*%
%ADD15C,1.700000*%
%TD*%
%TA.AperFunction,ComponentPad*%
%ADD16C,1.600000*%
%TD*%
%TA.AperFunction,ViaPad*%
%ADD17C,0.800000*%
%TD*%
%TA.AperFunction,Conductor*%
%ADD18C,0.500000*%
%TD*%
%TA.AperFunction,Conductor*%
%ADD19C,0.250000*%
%TD*%
G04 APERTURE END LIST*
D10*
%TO.P,TP3,1*%
%TO.N,GND*%
X38000000Y-5000000D03*
%TD*%
D11*
%TO.P,J2,R*%
%TO.N,R_OUT*%
X41400000Y-20000000D03*
D12*
%TO.P,J2,S*%
%TO.N,GND*%
X49700000Y-15000000D03*
D13*
%TO.P,J2,T*%
%TO.N,L_OUT*%
X46200000Y-10500000D03*
%TD*%
D10*
%TO.P,TP2,1*%
%TO.N,VREF*%
X20000000Y-14500000D03*
%TD*%
%TO.P,TP1,1*%
%TO.N,VCC*%
X32000000Y-5000000D03*
%TD*%
D14*
%TO.P,J3,1*%
%TO.N,9V_RAW*%
X20000000Y-2000000D03*
D15*
%TO.P,J3,2*%
%TO.N,GND*%
X17460000Y-2000000D03*
%TD*%
D16*
%TO.P,C1,1*%
%TO.N,L_IN_RAW*%
X15800000Y-23500000D03*
%TO.P,C1,2*%
%TO.N,L_IN_BIASED*%
X20800000Y-23500000D03*
%TD*%
D11*
%TO.P,J1,R*%
%TO.N,R_IN_RAW*%
X10600000Y-10000000D03*
D12*
%TO.P,J1,S*%
%TO.N,GND*%
X2300000Y-15000000D03*
D13*
%TO.P,J1,T*%
%TO.N,L_IN_RAW*%
X5800000Y-19500000D03*
%TD*%
D16*
%TO.P,C2,1*%
%TO.N,R_IN_RAW*%
X15800000Y-7500000D03*
%TO.P,C2,2*%
%TO.N,R_IN_BIASED*%
X20800000Y-7500000D03*
%TD*%
D17*
%TO.N,GND*%
X12000000Y-2000000D03*
X40000000Y-2000000D03*
X40000000Y-28000000D03*
X12000000Y-28000000D03*
X27000000Y-26000000D03*
X42000000Y-16000000D03*
%TO.N,VCC*%
X23500000Y-11500000D03*
X30000000Y-7000000D03*
%TO.N,L_OUT*%
X36500000Y-23500000D03*
%TD*%
%TO.N,VCC*%
D18*
X30000000Y-7000000D02*
X23500000Y-11500000D01*
%TO.N,L_OUT*%
D19*
X39000000Y-25500000D02*
X44000000Y-25500000D01*
X44000000Y-25500000D02*
X44000000Y-14000000D01*
X44000000Y-14000000D02*
X46200000Y-10500000D01*
X36500000Y-23500000D02*
X39000000Y-25500000D01*
%TD*%
%TA.AperFunction,Conductor*%
%TO.N,GND*%
G36*
X51442539Y-520185D02*
G01*
X51488294Y-572989D01*
X51499500Y-624500D01*
X51499500Y-29375500D01*
X51479815Y-29442539D01*
X51427011Y-29488294D01*
X51375500Y-29499500D01*
X624500Y-29499500D01*
X557461Y-29479815D01*
X511706Y-29427011D01*
X500500Y-29375500D01*
X500500Y-23396530D01*
X14749500Y-23396530D01*
X14749500Y-23603469D01*
X14789868Y-23806412D01*
X14789870Y-23806420D01*
X14869059Y-23997598D01*
X14921753Y-24076461D01*
X14984024Y-24169657D01*
X15130342Y-24315975D01*
X15130345Y-24315977D01*
X15302402Y-24430941D01*
X15493580Y-24510130D01*
X15696530Y-24550499D01*
X15696534Y-24550500D01*
X15696535Y-24550500D01*
X15903466Y-24550500D01*
X15903467Y-24550499D01*
X16106420Y-24510130D01*
X16297598Y-24430941D01*
X16469655Y-24315977D01*
X16615977Y-24169655D01*
X16730941Y-23997598D01*
X16810130Y-23806420D01*
X16850500Y-23603465D01*
X16850500Y-23396535D01*
X16850499Y-23396530D01*
X19749500Y-23396530D01*
X19749500Y-23603469D01*
X19789868Y-23806412D01*
X19789870Y-23806420D01*
X19869059Y-23997598D01*
X19921753Y-24076461D01*
X19984024Y-24169657D01*
X20130342Y-24315975D01*
X20130345Y-24315977D01*
X20302402Y-24430941D01*
X20493580Y-24510130D01*
X20696530Y-24550499D01*
X20696534Y-24550500D01*
X20696535Y-24550500D01*
X20903466Y-24550500D01*
X20903467Y-24550499D01*
X21106420Y-24510130D01*
X21297598Y-24430941D01*
X21469655Y-24315977D01*
X21615977Y-24169655D01*
X21730941Y-23997598D01*
X21810130Y-23806420D01*
X21850500Y-23603465D01*
X21850500Y-23564071D01*
X35849499Y-23564071D01*
X35874497Y-23689738D01*
X35874499Y-23689744D01*
X35923533Y-23808124D01*
X35923538Y-23808133D01*
X35994723Y-23914668D01*
X35994726Y-23914672D01*
X36085327Y-24005273D01*
X36085331Y-24005276D01*
X36191866Y-24076461D01*
X36191872Y-24076464D01*
X36191873Y-24076465D01*
X36310256Y-24125501D01*
X36310260Y-24125501D01*
X36310261Y-24125502D01*
X36435928Y-24150500D01*
X36435931Y-24150500D01*
X36564070Y-24150500D01*
X36594674Y-24144412D01*
X36625971Y-24138186D01*
X36695562Y-24144412D01*
X36727625Y-24162974D01*
X38687111Y-25730563D01*
X38743827Y-25775936D01*
X38754048Y-25785085D01*
X38769434Y-25800472D01*
X38769437Y-25800474D01*
X38769438Y-25800475D01*
X38779492Y-25806279D01*
X38794954Y-25816838D01*
X38804027Y-25824096D01*
X38804029Y-25824098D01*
X38823980Y-25832839D01*
X38836200Y-25839020D01*
X38855062Y-25849910D01*
X38866278Y-25852914D01*
X38883954Y-25859115D01*
X38894590Y-25863776D01*
X38916113Y-25867053D01*
X38929528Y-25869863D01*
X38950565Y-25875500D01*
X38962185Y-25875500D01*
X38980854Y-25876913D01*
X38992333Y-25878662D01*
X39011183Y-25876567D01*
X39013972Y-25876258D01*
X39027663Y-25875500D01*
X44049432Y-25875500D01*
X44049435Y-25875500D01*
X44144938Y-25849910D01*
X44230562Y-25800475D01*
X44300475Y-25730562D01*
X44349910Y-25644938D01*
X44375500Y-25549435D01*
X44375500Y-25409399D01*
X45866900Y-25409399D01*
X45866900Y-25409400D01*
X45866900Y-27590600D01*
X47409400Y-29133100D01*
X49590600Y-29133100D01*
X51133100Y-27590600D01*
X51133100Y-25409400D01*
X49590600Y-23866900D01*
X47409400Y-23866900D01*
X47409399Y-23866900D01*
X45866900Y-25409399D01*
X44375500Y-25409399D01*
X44375500Y-14378006D01*
X48150000Y-14378006D01*
X48150000Y-14850000D01*
X49200000Y-14850000D01*
X49200000Y-15150000D01*
X48150000Y-15150000D01*
X48150000Y-15621993D01*
X48188165Y-15862959D01*
X48263560Y-16094998D01*
X48374321Y-16312377D01*
X48517728Y-16509759D01*
X48690240Y-16682271D01*
X48887622Y-16825678D01*
X49105001Y-16936439D01*
X49337040Y-17011833D01*
X49550000Y-17045563D01*
X49550000Y-15977445D01*
X49634174Y-16000000D01*
X49765826Y-16000000D01*
X49850000Y-15977445D01*
X49850000Y-17045562D01*
X50062959Y-17011833D01*
X50294998Y-16936439D01*
X50512377Y-16825678D01*
X50709759Y-16682271D01*
X50882271Y-16509759D01*
X51025678Y-16312377D01*
X51136439Y-16094998D01*
X51211834Y-15862959D01*
X51250000Y-15621993D01*
X51250000Y-15150000D01*
X50200000Y-15150000D01*
X50200000Y-14850000D01*
X51250000Y-14850000D01*
X51250000Y-14378006D01*
X51211834Y-14137040D01*
X51136439Y-13905001D01*
X51025678Y-13687622D01*
X50882271Y-13490240D01*
X50709759Y-13317728D01*
X50512377Y-13174321D01*
X50294996Y-13063560D01*
X50062955Y-12988165D01*
X49850000Y-12954435D01*
X49850000Y-14022554D01*
X49765826Y-14000000D01*
X49634174Y-14000000D01*
X49550000Y-14022554D01*
X49550000Y-12954435D01*
X49337044Y-12988165D01*
X49105003Y-13063560D01*
X48887622Y-13174321D01*
X48690240Y-13317728D01*
X48517728Y-13490240D01*
X48374321Y-13687622D01*
X48263560Y-13905001D01*
X48188165Y-14137040D01*
X48150000Y-14378006D01*
X44375500Y-14378006D01*
X44375500Y-14143947D01*
X44394517Y-14077958D01*
X44408169Y-14056240D01*
X45663884Y-12058511D01*
X45716226Y-12012228D01*
X45768867Y-12000500D01*
X46818097Y-12000500D01*
X47051368Y-11963553D01*
X47275992Y-11890568D01*
X47486433Y-11783343D01*
X47677510Y-11644517D01*
X47844517Y-11477510D01*
X47983343Y-11286433D01*
X48090568Y-11075992D01*
X48163553Y-10851368D01*
X48175310Y-10777136D01*
X48200500Y-10618097D01*
X48200500Y-10381902D01*
X48163553Y-10148631D01*
X48090566Y-9924003D01*
X47983342Y-9713566D01*
X47979418Y-9708165D01*
X47844517Y-9522490D01*
X47677510Y-9355483D01*
X47486433Y-9216657D01*
X47275996Y-9109433D01*
X47051368Y-9036446D01*
X46818097Y-8999500D01*
X46818092Y-8999500D01*
X45581908Y-8999500D01*
X45581903Y-8999500D01*
X45348631Y-9036446D01*
X45124003Y-9109433D01*
X44913566Y-9216657D01*
X44804550Y-9295862D01*
X44722490Y-9355483D01*
X44722488Y-9355485D01*
X44722487Y-9355485D01*
X44555485Y-9522487D01*
X44555485Y-9522488D01*
X44555483Y-9522490D01*
X44495862Y-9604550D01*
X44416657Y-9713566D01*
X44309433Y-9924003D01*
X44236446Y-10148631D01*
X44199500Y-10381902D01*
X44199500Y-10618097D01*
X44236446Y-10851368D01*
X44309433Y-11075996D01*
X44368476Y-11191873D01*
X44416657Y-11286433D01*
X44555483Y-11477510D01*
X44722490Y-11644517D01*
X44844648Y-11733270D01*
X44887313Y-11788600D01*
X44893292Y-11858214D01*
X44876745Y-11899577D01*
X43712013Y-13752558D01*
X43703991Y-13762625D01*
X43704470Y-13762992D01*
X43699525Y-13769436D01*
X43679497Y-13804124D01*
X43677098Y-13808104D01*
X43655781Y-13842020D01*
X43652810Y-13848492D01*
X43650088Y-13855065D01*
X43639721Y-13893755D01*
X43638433Y-13898226D01*
X43626621Y-13936501D01*
X43625427Y-13943521D01*
X43624500Y-13950563D01*
X43624500Y-13990629D01*
X43624412Y-13995289D01*
X43622907Y-14035297D01*
X43623665Y-14043390D01*
X43623058Y-14043446D01*
X43624500Y-14056240D01*
X43624500Y-25000500D01*
X43604815Y-25067539D01*
X43552011Y-25113294D01*
X43500500Y-25124500D01*
X39175216Y-25124500D01*
X39108177Y-25104815D01*
X39097754Y-25097328D01*
X37197038Y-23576755D01*
X37156986Y-23519504D01*
X37150500Y-23479927D01*
X37150500Y-23435928D01*
X37125502Y-23310261D01*
X37125501Y-23310260D01*
X37125501Y-23310256D01*
X37076465Y-23191873D01*
X37076464Y-23191872D01*
X37076461Y-23191866D01*
X37005276Y-23085331D01*
X37005273Y-23085327D01*
X36914672Y-22994726D01*
X36914668Y-22994723D01*
X36808133Y-22923538D01*
X36808124Y-22923533D01*
X36689744Y-22874499D01*
X36689738Y-22874497D01*
X36564071Y-22849500D01*
X36564069Y-22849500D01*
X36435931Y-22849500D01*
X36435929Y-22849500D01*
X36310261Y-22874497D01*
X36310255Y-22874499D01*
X36191875Y-22923533D01*
X36191866Y-22923538D01*
X36085331Y-22994723D01*
X36085327Y-22994726D01*
X35994726Y-23085327D01*
X35994723Y-23085331D01*
X35923538Y-23191866D01*
X35923533Y-23191875D01*
X35874499Y-23310255D01*
X35874497Y-23310261D01*
X35849500Y-23435928D01*
X35849500Y-23435931D01*
X35849500Y-23564069D01*
X35849500Y-23564071D01*
X35849499Y-23564071D01*
X21850500Y-23564071D01*
X21850500Y-23396535D01*
X21810130Y-23193580D01*
X21730941Y-23002402D01*
X21615977Y-22830345D01*
X21615975Y-22830342D01*
X21469657Y-22684024D01*
X21383626Y-22626541D01*
X21297598Y-22569059D01*
X21106420Y-22489870D01*
X21106412Y-22489868D01*
X20903469Y-22449500D01*
X20903465Y-22449500D01*
X20696535Y-22449500D01*
X20696530Y-22449500D01*
X20493587Y-22489868D01*
X20493579Y-22489870D01*
X20302403Y-22569058D01*
X20130342Y-22684024D01*
X19984024Y-22830342D01*
X19869058Y-23002403D01*
X19789870Y-23193579D01*
X19789868Y-23193587D01*
X19749500Y-23396530D01*
X16850499Y-23396530D01*
X16810130Y-23193580D01*
X16730941Y-23002402D01*
X16615977Y-22830345D01*
X16615975Y-22830342D01*
X16469657Y-22684024D01*
X16383626Y-22626541D01*
X16297598Y-22569059D01*
X16106420Y-22489870D01*
X16106412Y-22489868D01*
X15903469Y-22449500D01*
X15903465Y-22449500D01*
X15696535Y-22449500D01*
X15696530Y-22449500D01*
X15493587Y-22489868D01*
X15493579Y-22489870D01*
X15302403Y-22569058D01*
X15130342Y-22684024D01*
X14984024Y-22830342D01*
X14869058Y-23002403D01*
X14789870Y-23193579D01*
X14789868Y-23193587D01*
X14749500Y-23396530D01*
X500500Y-23396530D01*
X500500Y-19381902D01*
X3799500Y-19381902D01*
X3799500Y-19618097D01*
X3836446Y-19851368D01*
X3909433Y-20075996D01*
X4016657Y-20286433D01*
X4155483Y-20477510D01*
X4322490Y-20644517D01*
X4513567Y-20783343D01*
X4612991Y-20834002D01*
X4724003Y-20890566D01*
X4724005Y-20890566D01*
X4724008Y-20890568D01*
X4844412Y-20929689D01*
X4948631Y-20963553D01*
X5181903Y-21000500D01*
X5181908Y-21000500D01*
X6418097Y-21000500D01*
X6651368Y-20963553D01*
X6655997Y-20962049D01*
X6875992Y-20890568D01*
X7086433Y-20783343D01*
X7277510Y-20644517D01*
X7444517Y-20477510D01*
X7583343Y-20286433D01*
X7679078Y-20098543D01*
X39649499Y-20098543D01*
X39687947Y-20291829D01*
X39687950Y-20291839D01*
X39763364Y-20473907D01*
X39763371Y-20473920D01*
X39872860Y-20637781D01*
X39872863Y-20637785D01*
X40012214Y-20777136D01*
X40012218Y-20777139D01*
X40176079Y-20886628D01*
X40176092Y-20886635D01*
X40358160Y-20962049D01*
X40358165Y-20962051D01*
X40358169Y-20962051D01*
X40358170Y-20962052D01*
X40551456Y-21000500D01*
X40551459Y-21000500D01*
X42248543Y-21000500D01*
X42378582Y-20974632D01*
X42441835Y-20962051D01*
X42614412Y-20890568D01*
X42623907Y-20886635D01*
X42623907Y-20886634D01*
X42623914Y-20886632D01*
X42787782Y-20777139D01*
X42927139Y-20637782D01*
X43036632Y-20473914D01*
X43112051Y-20291835D01*
X43150500Y-20098541D01*
X43150500Y-19901459D01*
X43150500Y-19901456D01*
X43112052Y-19708170D01*
X43112051Y-19708169D01*
X43112051Y-19708165D01*
X43074742Y-19618092D01*
X43036635Y-19526092D01*
X43036628Y-19526079D01*
X42927139Y-19362218D01*
X42927136Y-19362214D01*
X42787785Y-19222863D01*
X42787781Y-19222860D01*
X42623920Y-19113371D01*
X42623907Y-19113364D01*
X42441839Y-19037950D01*
X42441829Y-19037947D01*
X42248543Y-18999500D01*
X42248541Y-18999500D01*
X40551459Y-18999500D01*
X40551457Y-18999500D01*
X40358170Y-19037947D01*
X40358160Y-19037950D01*
X40176092Y-19113364D01*
X40176079Y-19113371D01*
X40012218Y-19222860D01*
X40012214Y-19222863D01*
X39872863Y-19362214D01*
X39872860Y-19362218D01*
X39763371Y-19526079D01*
X39763364Y-19526092D01*
X39687950Y-19708160D01*
X39687947Y-19708170D01*
X39649500Y-19901456D01*
X39649500Y-19901459D01*
X39649500Y-20098541D01*
X39649500Y-20098543D01*
X39649499Y-20098543D01*
X7679078Y-20098543D01*
X7690568Y-20075992D01*
X7730416Y-19953350D01*
X7761708Y-19857048D01*
X7762535Y-19854498D01*
X7763553Y-19851368D01*
X7786235Y-19708160D01*
X7800500Y-19618097D01*
X7800500Y-19381902D01*
X7763553Y-19148631D01*
X7690566Y-18924003D01*
X7583342Y-18713566D01*
X7444517Y-18522490D01*
X7277510Y-18355483D01*
X7086433Y-18216657D01*
X6875996Y-18109433D01*
X6651368Y-18036446D01*
X6418097Y-17999500D01*
X6418092Y-17999500D01*
X5181908Y-17999500D01*
X5181903Y-17999500D01*
X4948631Y-18036446D01*
X4724003Y-18109433D01*
X4513566Y-18216657D01*
X4404550Y-18295862D01*
X4322490Y-18355483D01*
X4322488Y-18355485D01*
X4322487Y-18355485D01*
X4155485Y-18522487D01*
X4155485Y-18522488D01*
X4155483Y-18522490D01*
X4095862Y-18604550D01*
X4016657Y-18713566D01*
X3909433Y-18924003D01*
X3836446Y-19148631D01*
X3799500Y-19381902D01*
X500500Y-19381902D01*
X500500Y-14378006D01*
X750000Y-14378006D01*
X750000Y-14850000D01*
X1800000Y-14850000D01*
X1800000Y-15150000D01*
X750000Y-15150000D01*
X750000Y-15621993D01*
X788165Y-15862959D01*
X863560Y-16094998D01*
X974321Y-16312377D01*
X1117728Y-16509759D01*
X1290240Y-16682271D01*
X1487622Y-16825678D01*
X1705001Y-16936439D01*
X1937040Y-17011833D01*
X2150000Y-17045563D01*
X2150000Y-15977445D01*
X2234174Y-16000000D01*
X2365826Y-16000000D01*
X2450000Y-15977445D01*
X2450000Y-17045562D01*
X2662959Y-17011833D01*
X2894998Y-16936439D01*
X3112377Y-16825678D01*
X3309759Y-16682271D01*
X3482271Y-16509759D01*
X3625678Y-16312377D01*
X3736439Y-16094998D01*
X3811834Y-15862959D01*
X3850000Y-15621993D01*
X3850000Y-15150000D01*
X2800000Y-15150000D01*
X2800000Y-14850000D01*
X3850000Y-14850000D01*
X3850000Y-14401577D01*
X18749500Y-14401577D01*
X18749500Y-14598422D01*
X18780290Y-14792826D01*
X18841117Y-14980029D01*
X18927722Y-15150000D01*
X18930476Y-15155405D01*
X19046172Y-15314646D01*
X19185354Y-15453828D01*
X19344595Y-15569524D01*
X19427455Y-15611743D01*
X19519970Y-15658882D01*
X19519972Y-15658882D01*
X19519975Y-15658884D01*
X19620317Y-15691487D01*
X19707173Y-15719709D01*
X19901578Y-15750500D01*
X19901583Y-15750500D01*
X20098422Y-15750500D01*
X20292826Y-15719709D01*
X20480025Y-15658884D01*
X20655405Y-15569524D01*
X20814646Y-15453828D01*
X20953828Y-15314646D01*
X21069524Y-15155405D01*
X21158884Y-14980025D01*
X21219709Y-14792826D01*
X21250500Y-14598422D01*
X21250500Y-14401577D01*
X21219709Y-14207173D01*
X21166492Y-14043390D01*
X21158884Y-14019975D01*
X21158882Y-14019972D01*
X21158882Y-14019970D01*
X21096850Y-13898226D01*
X21069524Y-13844595D01*
X20953828Y-13685354D01*
X20814646Y-13546172D01*
X20655405Y-13430476D01*
X20480029Y-13341117D01*
X20292826Y-13280290D01*
X20098422Y-13249500D01*
X20098417Y-13249500D01*
X19901583Y-13249500D01*
X19901578Y-13249500D01*
X19707173Y-13280290D01*
X19519970Y-13341117D01*
X19344594Y-13430476D01*
X19262337Y-13490240D01*
X19185354Y-13546172D01*
X19185352Y-13546174D01*
X19185351Y-13546174D01*
X19046174Y-13685351D01*
X19046174Y-13685352D01*
X19046172Y-13685354D01*
X18997345Y-13752558D01*
X18930476Y-13844594D01*
X18841117Y-14019970D01*
X18780290Y-14207173D01*
X18749500Y-14401577D01*
X3850000Y-14401577D01*
X3850000Y-14378006D01*
X3811834Y-14137040D01*
X3736439Y-13905001D01*
X3625678Y-13687622D01*
X3482271Y-13490240D01*
X3309759Y-13317728D01*
X3112377Y-13174321D01*
X2894996Y-13063560D01*
X2662955Y-12988165D01*
X2450000Y-12954435D01*
X2450000Y-14022554D01*
X2365826Y-14000000D01*
X2234174Y-14000000D01*
X2150000Y-14022554D01*
X2150000Y-12954435D01*
X1937044Y-12988165D01*
X1705003Y-13063560D01*
X1487622Y-13174321D01*
X1290240Y-13317728D01*
X1117728Y-13490240D01*
X974321Y-13687622D01*
X863560Y-13905001D01*
X788165Y-14137040D01*
X750000Y-14378006D01*
X500500Y-14378006D01*
X500500Y-11564071D01*
X22849499Y-11564071D01*
X22874497Y-11689738D01*
X22874499Y-11689744D01*
X22923533Y-11808124D01*
X22923538Y-11808133D01*
X22994723Y-11914668D01*
X22994726Y-11914672D01*
X23085327Y-12005273D01*
X23085331Y-12005276D01*
X23191866Y-12076461D01*
X23191872Y-12076464D01*
X23191873Y-12076465D01*
X23310256Y-12125501D01*
X23310260Y-12125501D01*
X23310261Y-12125502D01*
X23435928Y-12150500D01*
X23435931Y-12150500D01*
X23564071Y-12150500D01*
X23648615Y-12133682D01*
X23689744Y-12125501D01*
X23808127Y-12076465D01*
X23914669Y-12005276D01*
X24005276Y-11914669D01*
X24076465Y-11808127D01*
X24076466Y-11808124D01*
X24076468Y-11808121D01*
X24107472Y-11733270D01*
X24119690Y-11703772D01*
X24163526Y-11649372D01*
X29907831Y-7672548D01*
X29974155Y-7650573D01*
X29978413Y-7650500D01*
X30064071Y-7650500D01*
X30148615Y-7633682D01*
X30189744Y-7625501D01*
X30308127Y-7576465D01*
X30414669Y-7505276D01*
X30505276Y-7414669D01*
X30576465Y-7308127D01*
X30625501Y-7189744D01*
X30650500Y-7064069D01*
X30650500Y-6935931D01*
X30650500Y-6935928D01*
X30625502Y-6810261D01*
X30625501Y-6810260D01*
X30625501Y-6810256D01*
X30576465Y-6691873D01*
X30576464Y-6691872D01*
X30576461Y-6691866D01*
X30505276Y-6585331D01*
X30505273Y-6585327D01*
X30414672Y-6494726D01*
X30414668Y-6494723D01*
X30308133Y-6423538D01*
X30308124Y-6423533D01*
X30189744Y-6374499D01*
X30189738Y-6374497D01*
X30064071Y-6349500D01*
X30064069Y-6349500D01*
X29935931Y-6349500D01*
X29935929Y-6349500D01*
X29810261Y-6374497D01*
X29810255Y-6374499D01*
X29691875Y-6423533D01*
X29691866Y-6423538D01*
X29585331Y-6494723D01*
X29585327Y-6494726D01*
X29494726Y-6585327D01*
X29494723Y-6585331D01*
X29423538Y-6691866D01*
X29423533Y-6691876D01*
X29380311Y-6796224D01*
X29336470Y-6850627D01*
X29336332Y-6850723D01*
X23592169Y-10827452D01*
X23525845Y-10849427D01*
X23521587Y-10849500D01*
X23435929Y-10849500D01*
X23310261Y-10874497D01*
X23310255Y-10874499D01*
X23191875Y-10923533D01*
X23191866Y-10923538D01*
X23085331Y-10994723D01*
X23085327Y-10994726D01*
X22994726Y-11085327D01*
X22994723Y-11085331D01*
X22923538Y-11191866D01*
X22923533Y-11191875D01*
X22874499Y-11310255D01*
X22874497Y-11310261D01*
X22849500Y-11435928D01*
X22849500Y-11435931D01*
X22849500Y-11564069D01*
X22849500Y-11564071D01*
X22849499Y-11564071D01*
X500500Y-11564071D01*
X500500Y-10098543D01*
X8849499Y-10098543D01*
X8887947Y-10291829D01*
X8887950Y-10291839D01*
X8963364Y-10473907D01*
X8963371Y-10473920D01*
X9072860Y-10637781D01*
X9072863Y-10637785D01*
X9212214Y-10777136D01*
X9212218Y-10777139D01*
X9376079Y-10886628D01*
X9376092Y-10886635D01*
X9558160Y-10962049D01*
X9558165Y-10962051D01*
X9558169Y-10962051D01*
X9558170Y-10962052D01*
X9751456Y-11000500D01*
X9751459Y-11000500D01*
X11448543Y-11000500D01*
X11578582Y-10974632D01*
X11641835Y-10962051D01*
X11823914Y-10886632D01*
X11987782Y-10777139D01*
X12127139Y-10637782D01*
X12236632Y-10473914D01*
X12312051Y-10291835D01*
X12340536Y-10148632D01*
X12350500Y-10098543D01*
X12350500Y-9901456D01*
X12312052Y-9708170D01*
X12312051Y-9708169D01*
X12312051Y-9708165D01*
X12312049Y-9708160D01*
X12236635Y-9526092D01*
X12236628Y-9526079D01*
X12127139Y-9362218D01*
X12127136Y-9362214D01*
X11987785Y-9222863D01*
X11987781Y-9222860D01*
X11823920Y-9113371D01*
X11823907Y-9113364D01*
X11641839Y-9037950D01*
X11641829Y-9037947D01*
X11448543Y-8999500D01*
X11448541Y-8999500D01*
X9751459Y-8999500D01*
X9751457Y-8999500D01*
X9558170Y-9037947D01*
X9558160Y-9037950D01*
X9376092Y-9113364D01*
X9376079Y-9113371D01*
X9212218Y-9222860D01*
X9212214Y-9222863D01*
X9072863Y-9362214D01*
X9072860Y-9362218D01*
X8963371Y-9526079D01*
X8963364Y-9526092D01*
X8887950Y-9708160D01*
X8887947Y-9708170D01*
X8849500Y-9901456D01*
X8849500Y-9901459D01*
X8849500Y-10098541D01*
X8849500Y-10098543D01*
X8849499Y-10098543D01*
X500500Y-10098543D01*
X500500Y-7396530D01*
X14749500Y-7396530D01*
X14749500Y-7603469D01*
X14789868Y-7806412D01*
X14789870Y-7806420D01*
X14869058Y-7997596D01*
X14984024Y-8169657D01*
X15130342Y-8315975D01*
X15130345Y-8315977D01*
X15302402Y-8430941D01*
X15493580Y-8510130D01*
X15696530Y-8550499D01*
X15696534Y-8550500D01*
X15696535Y-8550500D01*
X15903466Y-8550500D01*
X15903467Y-8550499D01*
X16106420Y-8510130D01*
X16297598Y-8430941D01*
X16469655Y-8315977D01*
X16615977Y-8169655D01*
X16730941Y-7997598D01*
X16810130Y-7806420D01*
X16850500Y-7603465D01*
X16850500Y-7396535D01*
X16850499Y-7396530D01*
X19749500Y-7396530D01*
X19749500Y-7603469D01*
X19789868Y-7806412D01*
X19789870Y-7806420D01*
X19869058Y-7997596D01*
X19984024Y-8169657D01*
X20130342Y-8315975D01*
X20130345Y-8315977D01*
X20302402Y-8430941D01*
X20493580Y-8510130D01*
X20696530Y-8550499D01*
X20696534Y-8550500D01*
X20696535Y-8550500D01*
X20903466Y-8550500D01*
X20903467Y-8550499D01*
X21106420Y-8510130D01*
X21297598Y-8430941D01*
X21469655Y-8315977D01*
X21615977Y-8169655D01*
X21730941Y-7997598D01*
X21810130Y-7806420D01*
X21850500Y-7603465D01*
X21850500Y-7396535D01*
X21810130Y-7193580D01*
X21730941Y-7002402D01*
X21615977Y-6830345D01*
X21615975Y-6830342D01*
X21469657Y-6684024D01*
X21321945Y-6585327D01*
X21297598Y-6569059D01*
X21106420Y-6489870D01*
X21106412Y-6489868D01*
X20903469Y-6449500D01*
X20903465Y-6449500D01*
X20696535Y-6449500D01*
X20696530Y-6449500D01*
X20493587Y-6489868D01*
X20493579Y-6489870D01*
X20302403Y-6569058D01*
X20130342Y-6684024D01*
X19984024Y-6830342D01*
X19869058Y-7002403D01*
X19789870Y-7193579D01*
X19789868Y-7193587D01*
X19749500Y-7396530D01*
X16850499Y-7396530D01*
X16810130Y-7193580D01*
X16730941Y-7002402D01*
X16615977Y-6830345D01*
X16615975Y-6830342D01*
X16469657Y-6684024D01*
X16321945Y-6585327D01*
X16297598Y-6569059D01*
X16106420Y-6489870D01*
X16106412Y-6489868D01*
X15903469Y-6449500D01*
X15903465Y-6449500D01*
X15696535Y-6449500D01*
X15696530Y-6449500D01*
X15493587Y-6489868D01*
X15493579Y-6489870D01*
X15302403Y-6569058D01*
X15130342Y-6684024D01*
X14984024Y-6830342D01*
X14869058Y-7002403D01*
X14789870Y-7193579D01*
X14789868Y-7193587D01*
X14749500Y-7396530D01*
X500500Y-7396530D01*
X500500Y-2409399D01*
X866900Y-2409399D01*
X866900Y-2409400D01*
X866900Y-4590600D01*
X2409400Y-6133100D01*
X4590600Y-6133100D01*
X5822123Y-4901577D01*
X30749500Y-4901577D01*
X30749500Y-5098422D01*
X30780290Y-5292826D01*
X30841117Y-5480029D01*
X30930476Y-5655405D01*
X31046172Y-5814646D01*
X31185354Y-5953828D01*
X31344595Y-6069524D01*
X31427455Y-6111743D01*
X31519970Y-6158882D01*
X31519972Y-6158882D01*
X31519975Y-6158884D01*
X31620317Y-6191487D01*
X31707173Y-6219709D01*
X31901578Y-6250500D01*
X31901583Y-6250500D01*
X32098422Y-6250500D01*
X32292826Y-6219709D01*
X32338849Y-6204755D01*
X32480025Y-6158884D01*
X32655405Y-6069524D01*
X32814646Y-5953828D01*
X32953828Y-5814646D01*
X33069524Y-5655405D01*
X33158884Y-5480025D01*
X33219709Y-5292826D01*
X33235521Y-5192993D01*
X33250500Y-5098422D01*
X33250500Y-4901580D01*
X33250499Y-4901574D01*
X33249883Y-4897682D01*
X36700000Y-4897682D01*
X36700000Y-5102317D01*
X36732009Y-5304417D01*
X36795244Y-5499031D01*
X36888141Y-5681350D01*
X36888147Y-5681359D01*
X36980033Y-5807831D01*
X36980035Y-5807832D01*
X37556329Y-5231538D01*
X37599901Y-5307007D01*
X37692993Y-5400099D01*
X37768460Y-5443670D01*
X37192166Y-6019963D01*
X37318650Y-6111859D01*
X37500968Y-6204755D01*
X37695582Y-6267990D01*
X37897683Y-6300000D01*
X38102317Y-6300000D01*
X38304417Y-6267990D01*
X38499031Y-6204755D01*
X38681349Y-6111859D01*
X38807831Y-6019963D01*
X38807832Y-6019963D01*
X38231538Y-5443670D01*
X38307007Y-5400099D01*
X38400099Y-5307007D01*
X38443670Y-5231538D01*
X39019963Y-5807832D01*
X39019963Y-5807831D01*
X39111859Y-5681349D01*
X39204755Y-5499031D01*
X39267990Y-5304417D01*
X39300000Y-5102317D01*
X39300000Y-4897682D01*
X39267990Y-4695582D01*
X39204755Y-4500968D01*
X39111859Y-4318650D01*
X39019963Y-4192167D01*
X39019963Y-4192166D01*
X38443670Y-4768460D01*
X38400099Y-4692993D01*
X38307007Y-4599901D01*
X38231538Y-4556329D01*
X38807832Y-3980035D01*
X38807831Y-3980033D01*
X38681359Y-3888147D01*
X38681350Y-3888141D01*
X38499031Y-3795244D01*
X38304417Y-3732009D01*
X38102317Y-3700000D01*
X37897683Y-3700000D01*
X37695582Y-3732009D01*
X37500968Y-3795244D01*
X37318647Y-3888142D01*
X37192167Y-3980034D01*
X37192167Y-3980035D01*
X37768461Y-4556329D01*
X37692993Y-4599901D01*
X37599901Y-4692993D01*
X37556329Y-4768461D01*
X36980035Y-4192167D01*
X36980034Y-4192167D01*
X36888142Y-4318647D01*
X36795244Y-4500968D01*
X36732009Y-4695582D01*
X36700000Y-4897682D01*
X33249883Y-4897682D01*
X33219709Y-4707173D01*
X33184854Y-4599901D01*
X33158884Y-4519975D01*
X33158882Y-4519972D01*
X33158882Y-4519970D01*
X33069523Y-4344594D01*
X32953828Y-4185354D01*
X32814646Y-4046172D01*
X32655405Y-3930476D01*
X32480029Y-3841117D01*
X32292826Y-3780290D01*
X32098422Y-3749500D01*
X32098417Y-3749500D01*
X31901583Y-3749500D01*
X31901578Y-3749500D01*
X31707173Y-3780290D01*
X31519970Y-3841117D01*
X31344594Y-3930476D01*
X31276383Y-3980035D01*
X31185354Y-4046172D01*
X31185352Y-4046174D01*
X31185351Y-4046174D01*
X31046174Y-4185351D01*
X31046174Y-4185352D01*
X31046172Y-4185354D01*
X30996485Y-4253741D01*
X30930476Y-4344594D01*
X30841117Y-4519970D01*
X30780290Y-4707173D01*
X30749500Y-4901577D01*
X5822123Y-4901577D01*
X6133100Y-4590600D01*
X6133100Y-2409400D01*
X5633193Y-1909493D01*
X16310000Y-1909493D01*
X16310000Y-2090506D01*
X16338317Y-2269293D01*
X16394251Y-2441444D01*
X16394252Y-2441447D01*
X16476432Y-2602731D01*
X16547424Y-2700442D01*
X16547425Y-2700443D01*
X17016329Y-2231538D01*
X17059901Y-2307007D01*
X17152993Y-2400099D01*
X17228460Y-2443670D01*
X16759555Y-2912574D01*
X16857268Y-2983567D01*
X17018552Y-3065747D01*
X17018555Y-3065748D01*
X17190706Y-3121682D01*
X17369494Y-3150000D01*
X17550506Y-3150000D01*
X17729293Y-3121682D01*
X17901444Y-3065748D01*
X17901447Y-3065747D01*
X18062730Y-2983568D01*
X18160442Y-2912574D01*
X18160443Y-2912574D01*
X17691539Y-2443670D01*
X17767007Y-2400099D01*
X17860099Y-2307007D01*
X17903670Y-2231539D01*
X18372574Y-2700443D01*
X18372574Y-2700442D01*
X18443568Y-2602730D01*
X18525747Y-2441447D01*
X18525748Y-2441444D01*
X18581682Y-2269293D01*
X18610000Y-2090506D01*
X18610000Y-1909493D01*
X18581682Y-1730706D01*
X18525748Y-1558555D01*
X18525747Y-1558552D01*
X18443567Y-1397268D01*
X18372574Y-1299556D01*
X18372574Y-1299555D01*
X17903670Y-1768460D01*
X17860099Y-1692993D01*
X17767007Y-1599901D01*
X17691538Y-1556329D01*
X18122546Y-1125321D01*
X18899500Y-1125321D01*
X18899500Y-2874678D01*
X18914032Y-2947735D01*
X18914033Y-2947739D01*
X18914034Y-2947740D01*
X18969399Y-3030601D01*
X19052260Y-3085966D01*
X19052264Y-3085967D01*
X19125321Y-3100499D01*
X19125324Y-3100500D01*
X19125326Y-3100500D01*
X20874676Y-3100500D01*
X20874677Y-3100499D01*
X20947740Y-3085966D01*
X21030601Y-3030601D01*
X21085966Y-2947740D01*
X21100500Y-2874674D01*
X21100500Y-1125326D01*
X21100500Y-1125323D01*
X21100499Y-1125321D01*
X21085967Y-1052264D01*
X21085966Y-1052260D01*
X21062028Y-1016434D01*
X21030601Y-969399D01*
X20947740Y-914034D01*
X20947739Y-914033D01*
X20947735Y-914032D01*
X20874677Y-899500D01*
X20874674Y-899500D01*
X19125326Y-899500D01*
X19125323Y-899500D01*
X19052264Y-914032D01*
X19052260Y-914033D01*
X18969399Y-969399D01*
X18914033Y-1052260D01*
X18914032Y-1052264D01*
X18899500Y-1125321D01*
X18122546Y-1125321D01*
X18160442Y-1087425D01*
X18160442Y-1087424D01*
X18062731Y-1016432D01*
X17901447Y-934252D01*
X17901444Y-934251D01*
X17729293Y-878317D01*
X17550506Y-850000D01*
X17369494Y-850000D01*
X17190706Y-878317D01*
X17018555Y-934251D01*
X17018552Y-934252D01*
X16857265Y-1016434D01*
X16759556Y-1087423D01*
X16759556Y-1087425D01*
X17228461Y-1556329D01*
X17152993Y-1599901D01*
X17059901Y-1692993D01*
X17016329Y-1768460D01*
X16547425Y-1299556D01*
X16547423Y-1299556D01*
X16476434Y-1397265D01*
X16394252Y-1558552D01*
X16394251Y-1558555D01*
X16338317Y-1730706D01*
X16310000Y-1909493D01*
X5633193Y-1909493D01*
X4590600Y-866900D01*
X2409400Y-866900D01*
X2409399Y-866900D01*
X866900Y-2409399D01*
X500500Y-2409399D01*
X500500Y-624500D01*
X520185Y-557461D01*
X572989Y-511706D01*
X624500Y-500500D01*
X51375500Y-500500D01*
X51442539Y-520185D01*
G37*
%TD.AperFunction*%
%TD*%
M02*
