%TF.GenerationSoftware,KiCad,Pcbnew,10.0.5*%
%TF.CreationDate,2026-08-03T03:57:14+09:00*%
%TF.ProjectId,coppertone-buffer,636f7070-6572-4746-9f6e-652d62756666,0.1.0-preview*%
%TF.SameCoordinates,Original*%
%TF.FileFunction,Copper,L1,Top*%
%TF.FilePolarity,Positive*%
%FSLAX46Y46*%
G04 Gerber Fmt 4.6, Leading zero omitted, Abs format (unit mm)*
G04 Created by KiCad (PCBNEW 10.0.5) date 2026-08-03 03:57:14*
%MOMM*%
%LPD*%
G01*
G04 APERTURE LIST*
G04 Aperture macros list*
%AMRoundRect*
0 Rectangle with rounded corners*
0 $1 Rounding radius*
0 $2 $3 $4 $5 $6 $7 $8 $9 X,Y pos of 4 corners*
0 Add a 4 corners polygon primitive as box body*
4,1,4,$2,$3,$4,$5,$6,$7,$8,$9,$2,$3,0*
0 Add four circle primitives for the rounded corners*
1,1,$1+$1,$2,$3*
1,1,$1+$1,$4,$5*
1,1,$1+$1,$6,$7*
1,1,$1+$1,$8,$9*
0 Add four rect primitives between the rounded corners*
20,1,$1+$1,$2,$3,$4,$5,0*
20,1,$1+$1,$4,$5,$6,$7,0*
20,1,$1+$1,$6,$7,$8,$9,0*
20,1,$1+$1,$8,$9,$2,$3,0*%
G04 Aperture macros list end*
%TA.AperFunction,SMDPad,CuDef*%
%ADD10RoundRect,0.320000X-0.980000X-0.480000X0.980000X-0.480000X0.980000X0.480000X-0.980000X0.480000X0*%
%TD*%
%TA.AperFunction,SMDPad,CuDef*%
%ADD11RoundRect,0.240000X-0.360000X-0.460000X0.360000X-0.460000X0.360000X0.460000X-0.360000X0.460000X0*%
%TD*%
%TA.AperFunction,ComponentPad*%
%ADD12R,1.700000X1.700000*%
%TD*%
%TA.AperFunction,ComponentPad*%
%ADD13C,1.700000*%
%TD*%
%TA.AperFunction,ComponentPad*%
%ADD14C,2.000000*%
%TD*%
%TA.AperFunction,ComponentPad*%
%ADD15O,3.000000X1.500000*%
%TD*%
%TA.AperFunction,ComponentPad*%
%ADD16O,2.500000X3.500000*%
%TD*%
%TA.AperFunction,ComponentPad*%
%ADD17O,3.500000X2.500000*%
%TD*%
%TA.AperFunction,SMDPad,CuDef*%
%ADD18RoundRect,0.120000X-0.180000X-0.855000X0.180000X-0.855000X0.180000X0.855000X-0.180000X0.855000X0*%
%TD*%
%TA.AperFunction,SMDPad,CuDef*%
%ADD19RoundRect,0.320000X-1.430000X-0.480000X1.430000X-0.480000X1.430000X0.480000X-1.430000X0.480000X0*%
%TD*%
%TA.AperFunction,SMDPad,CuDef*%
%ADD20RoundRect,0.360000X-0.890000X-0.540000X0.890000X-0.540000X0.890000X0.540000X-0.890000X0.540000X0*%
%TD*%
%TA.AperFunction,ComponentPad*%
%ADD21C,1.600000*%
%TD*%
%TA.AperFunction,ViaPad*%
%ADD22C,0.800000*%
%TD*%
%TA.AperFunction,Conductor*%
%ADD23C,0.500000*%
%TD*%
%TA.AperFunction,Conductor*%
%ADD24C,0.250000*%
%TD*%
G04 APERTURE END LIST*
D10*
%TO.P,C4,1*%
%TO.N,R_ISO*%
X35300000Y-9500000D03*
%TO.P,C4,2*%
%TO.N,R_OUT*%
X35300000Y-13100000D03*
%TD*%
D11*
%TO.P,R6,1*%
%TO.N,L_BUF*%
X30800000Y-19500000D03*
%TO.P,R6,2*%
%TO.N,L_ISO*%
X33200000Y-19500000D03*
%TD*%
D12*
%TO.P,J3,1*%
%TO.N,9V_RAW*%
X20000000Y-2000000D03*
D13*
%TO.P,J3,2*%
%TO.N,GND*%
X17460000Y-2000000D03*
%TD*%
D14*
%TO.P,TP1,1*%
%TO.N,VCC*%
X32000000Y-5000000D03*
%TD*%
D11*
%TO.P,R5,1*%
%TO.N,R_BUF*%
X30800000Y-9500000D03*
%TO.P,R5,2*%
%TO.N,R_ISO*%
X33200000Y-9500000D03*
%TD*%
D15*
%TO.P,J1,R*%
%TO.N,R_IN_RAW*%
X10600000Y-10000000D03*
D16*
%TO.P,J1,S*%
%TO.N,GND*%
X2300000Y-15000000D03*
D17*
%TO.P,J1,T*%
%TO.N,L_IN_RAW*%
X5800000Y-19500000D03*
%TD*%
D15*
%TO.P,J2,R*%
%TO.N,R_OUT*%
X41400000Y-20000000D03*
D16*
%TO.P,J2,S*%
%TO.N,GND*%
X49700000Y-15000000D03*
D17*
%TO.P,J2,T*%
%TO.N,L_OUT*%
X46200000Y-10500000D03*
%TD*%
D14*
%TO.P,TP2,1*%
%TO.N,VREF*%
X20000000Y-14500000D03*
%TD*%
D18*
%TO.P,U1,1*%
%TO.N,R_BUF*%
X29405000Y-12525000D03*
%TO.P,U1,2*%
X28135000Y-12525000D03*
%TO.P,U1,3*%
%TO.N,R_IN_BIASED*%
X26865000Y-12525000D03*
%TO.P,U1,4*%
%TO.N,GND*%
X25595000Y-12525000D03*
%TO.P,U1,5*%
%TO.N,L_IN_BIASED*%
X25595000Y-17475000D03*
%TO.P,U1,6*%
%TO.N,L_BUF*%
X26865000Y-17475000D03*
%TO.P,U1,7*%
X28135000Y-17475000D03*
%TO.P,U1,8*%
%TO.N,VCC*%
X29405000Y-17475000D03*
%TD*%
D19*
%TO.P,C5,1*%
%TO.N,VREF*%
X18000000Y-12800000D03*
%TO.P,C5,2*%
%TO.N,GND*%
X18000000Y-18200000D03*
%TD*%
D11*
%TO.P,C7,1*%
%TO.N,VCC*%
X30300000Y-17500000D03*
%TO.P,C7,2*%
%TO.N,GND*%
X32700000Y-17500000D03*
%TD*%
D20*
%TO.P,D1,1*%
%TO.N,VCC*%
X29000000Y-7000000D03*
%TO.P,D1,2*%
%TO.N,9V_RAW*%
X29000000Y-3000000D03*
%TD*%
D11*
%TO.P,R1,1*%
%TO.N,VCC*%
X22800000Y-12600000D03*
%TO.P,R1,2*%
%TO.N,VREF*%
X22800000Y-15000000D03*
%TD*%
%TO.P,R8,1*%
%TO.N,L_OUT*%
X44000000Y-6300000D03*
%TO.P,R8,2*%
%TO.N,GND*%
X44000000Y-8700000D03*
%TD*%
D10*
%TO.P,C3,1*%
%TO.N,L_ISO*%
X35300000Y-19500000D03*
%TO.P,C3,2*%
%TO.N,L_OUT*%
X35300000Y-23100000D03*
%TD*%
D21*
%TO.P,C1,1*%
%TO.N,L_IN_RAW*%
X15800000Y-23500000D03*
%TO.P,C1,2*%
%TO.N,L_IN_BIASED*%
X20800000Y-23500000D03*
%TD*%
D11*
%TO.P,C6,1*%
%TO.N,VREF*%
X16300000Y-10500000D03*
%TO.P,C6,2*%
%TO.N,GND*%
X18700000Y-10500000D03*
%TD*%
%TO.P,R4,1*%
%TO.N,VREF*%
X24500000Y-19800000D03*
%TO.P,R4,2*%
%TO.N,L_IN_BIASED*%
X24500000Y-22200000D03*
%TD*%
D10*
%TO.P,C8,1*%
%TO.N,VCC*%
X11800000Y-4500000D03*
%TO.P,C8,2*%
%TO.N,GND*%
X8200000Y-4500000D03*
%TD*%
D21*
%TO.P,C2,1*%
%TO.N,R_IN_RAW*%
X15800000Y-7500000D03*
%TO.P,C2,2*%
%TO.N,R_IN_BIASED*%
X20800000Y-7500000D03*
%TD*%
D11*
%TO.P,R2,1*%
%TO.N,VREF*%
X22800000Y-16000000D03*
%TO.P,R2,2*%
%TO.N,GND*%
X22800000Y-18400000D03*
%TD*%
%TO.P,R7,1*%
%TO.N,R_OUT*%
X40000000Y-21800000D03*
%TO.P,R7,2*%
%TO.N,GND*%
X40000000Y-24200000D03*
%TD*%
%TO.P,R3,1*%
%TO.N,R_IN_BIASED*%
X24500000Y-7800000D03*
%TO.P,R3,2*%
%TO.N,VREF*%
X24500000Y-10200000D03*
%TD*%
D14*
%TO.P,TP3,1*%
%TO.N,GND*%
X38000000Y-5000000D03*
%TD*%
D22*
%TO.N,GND*%
X40000000Y-28000000D03*
X12000000Y-2000000D03*
X12000000Y-28000000D03*
X42000000Y-16000000D03*
X40000000Y-2000000D03*
X27000000Y-26000000D03*
%TO.N,VCC*%
X30000000Y-7000000D03*
X23500000Y-11500000D03*
%TO.N,L_OUT*%
X36500000Y-23500000D03*
%TD*%
%TO.N,9V_RAW*%
D23*
X26000000Y-2000000D02*
X29000000Y-3000000D01*
X20000000Y-2000000D02*
X26000000Y-2000000D01*
%TO.N,VCC*%
X31500000Y-15500000D02*
X30300000Y-17500000D01*
X23500000Y-11500000D02*
X22800000Y-12600000D01*
X32000000Y-14500000D02*
X31500000Y-15500000D01*
X30300000Y-17500000D02*
X29405000Y-17475000D01*
X29000000Y-7000000D02*
X29000000Y-5000000D01*
X29000000Y-5000000D02*
X11800000Y-5000000D01*
X29000000Y-7000000D02*
X32000000Y-7000000D01*
X32000000Y-7000000D02*
X32000000Y-14500000D01*
X11800000Y-5000000D02*
X11800000Y-4500000D01*
X32000000Y-7000000D02*
X32000000Y-5000000D01*
%TO.N,VREF*%
D24*
X20500000Y-17000000D02*
X22800000Y-16000000D01*
X16300000Y-10500000D02*
X18000000Y-12800000D01*
X20500000Y-13000000D02*
X20000000Y-14500000D01*
X21000000Y-10500000D02*
X20500000Y-13000000D01*
X20000000Y-14500000D02*
X22800000Y-15000000D01*
X21000000Y-20000000D02*
X20500000Y-17000000D01*
X22800000Y-15000000D02*
X22800000Y-16000000D01*
X24500000Y-19800000D02*
X21000000Y-20000000D01*
X18000000Y-12800000D02*
X20000000Y-14500000D01*
X24500000Y-10200000D02*
X21000000Y-10500000D01*
%TO.N,R_IN_RAW*%
X10600000Y-10000000D02*
X13000000Y-10000000D01*
X13000000Y-10000000D02*
X15800000Y-7500000D01*
%TO.N,R_IN_BIASED*%
X20800000Y-7500000D02*
X24500000Y-7800000D01*
X26865000Y-9500000D02*
X26865000Y-12525000D01*
X24500000Y-7800000D02*
X26865000Y-9500000D01*
%TO.N,R_BUF*%
X29405000Y-12525000D02*
X29400000Y-10500000D01*
X29400000Y-10500000D02*
X30800000Y-9500000D01*
X28135000Y-12525000D02*
X29405000Y-12525000D01*
%TO.N,R_ISO*%
X33200000Y-9500000D02*
X35300000Y-9500000D01*
%TO.N,R_OUT*%
X38000000Y-17000000D02*
X41400000Y-20000000D01*
X41400000Y-20000000D02*
X40000000Y-21800000D01*
X37000000Y-13500000D02*
X38000000Y-17000000D01*
X35300000Y-13100000D02*
X37000000Y-13500000D01*
%TO.N,L_IN_RAW*%
X13000000Y-23500000D02*
X15800000Y-23500000D01*
X9000000Y-21500000D02*
X13000000Y-23500000D01*
X5800000Y-19500000D02*
X9000000Y-21500000D01*
%TO.N,L_IN_BIASED*%
X20800000Y-23500000D02*
X24500000Y-22200000D01*
X24500000Y-22200000D02*
X25595000Y-20500000D01*
X25595000Y-20500000D02*
X25595000Y-17475000D01*
%TO.N,L_BUF*%
X28000000Y-19500000D02*
X30800000Y-19500000D01*
X26865000Y-17475000D02*
X28135000Y-17475000D01*
X28135000Y-17475000D02*
X28000000Y-19500000D01*
%TO.N,L_ISO*%
X33200000Y-19500000D02*
X35300000Y-19500000D01*
%TO.N,L_OUT*%
X46200000Y-7500000D02*
X44000000Y-6300000D01*
X35300000Y-23100000D02*
X36500000Y-23500000D01*
X46200000Y-10500000D02*
X46200000Y-7500000D01*
%TD*%
%TA.AperFunction,Conductor*%
%TO.N,GND*%
G36*
X51442539Y-520185D02*
G01*
X51488294Y-572989D01*
X51499500Y-624500D01*
X51499500Y-29375500D01*
X51479815Y-29442539D01*
X51427011Y-29488294D01*
X51375500Y-29499500D01*
X624500Y-29499500D01*
X557461Y-29479815D01*
X511706Y-29427011D01*
X500500Y-29375500D01*
X500500Y-25409399D01*
X45866900Y-25409399D01*
X45866900Y-25409400D01*
X45866900Y-27590600D01*
X47409400Y-29133100D01*
X49590600Y-29133100D01*
X51133100Y-27590600D01*
X51133100Y-25409400D01*
X49590600Y-23866900D01*
X47409400Y-23866900D01*
X47409399Y-23866900D01*
X45866900Y-25409399D01*
X500500Y-25409399D01*
X500500Y-24702270D01*
X39100001Y-24702270D01*
X39110420Y-24789054D01*
X39110422Y-24789058D01*
X39164876Y-24927144D01*
X39164879Y-24927150D01*
X39254571Y-25045428D01*
X39372849Y-25135120D01*
X39372855Y-25135123D01*
X39510943Y-25189578D01*
X39597729Y-25199999D01*
X39849999Y-25199999D01*
X40150000Y-25199999D01*
X40402271Y-25199999D01*
X40489054Y-25189579D01*
X40489058Y-25189577D01*
X40627144Y-25135123D01*
X40627150Y-25135120D01*
X40745428Y-25045428D01*
X40835120Y-24927150D01*
X40835123Y-24927144D01*
X40889578Y-24789056D01*
X40900000Y-24702270D01*
X40900000Y-24350000D01*
X40150000Y-24350000D01*
X40150000Y-25199999D01*
X39849999Y-25199999D01*
X39850000Y-25199998D01*
X39850000Y-24350000D01*
X39100001Y-24350000D01*
X39100001Y-24702270D01*
X500500Y-24702270D01*
X500500Y-19381902D01*
X3799500Y-19381902D01*
X3799500Y-19618097D01*
X3836446Y-19851368D01*
X3909433Y-20075996D01*
X4016657Y-20286433D01*
X4155483Y-20477510D01*
X4322490Y-20644517D01*
X4513567Y-20783343D01*
X4554364Y-20804130D01*
X4724003Y-20890566D01*
X4724005Y-20890566D01*
X4724008Y-20890568D01*
X4768650Y-20905073D01*
X4948631Y-20963553D01*
X5181903Y-21000500D01*
X5181908Y-21000500D01*
X6418097Y-21000500D01*
X6651368Y-20963553D01*
X6655997Y-20962049D01*
X6875992Y-20890568D01*
X7056103Y-20798796D01*
X7124771Y-20785901D01*
X7178117Y-20804130D01*
X7250709Y-20849500D01*
X8765571Y-21796289D01*
X8782119Y-21808663D01*
X8787853Y-21813748D01*
X8810842Y-21825242D01*
X8821108Y-21831000D01*
X8842906Y-21844624D01*
X8850245Y-21846868D01*
X8869431Y-21854536D01*
X12818683Y-23829163D01*
X12825190Y-23832663D01*
X12855062Y-23849910D01*
X12855064Y-23849910D01*
X12858646Y-23851394D01*
X12872635Y-23856703D01*
X12876282Y-23857963D01*
X12876283Y-23857963D01*
X12876287Y-23857965D01*
X12910063Y-23864876D01*
X12917247Y-23866572D01*
X12950565Y-23875500D01*
X12950567Y-23875500D01*
X12954387Y-23876003D01*
X12969310Y-23877514D01*
X12973151Y-23877787D01*
X12973151Y-23877786D01*
X12973152Y-23877787D01*
X13007538Y-23875723D01*
X13014968Y-23875500D01*
X14735630Y-23875500D01*
X14802669Y-23895185D01*
X14848424Y-23947989D01*
X14850191Y-23952047D01*
X14869059Y-23997598D01*
X14904073Y-24050000D01*
X14984024Y-24169657D01*
X15130342Y-24315975D01*
X15130345Y-24315977D01*
X15302402Y-24430941D01*
X15493580Y-24510130D01*
X15696530Y-24550499D01*
X15696534Y-24550500D01*
X15696535Y-24550500D01*
X15903466Y-24550500D01*
X15903467Y-24550499D01*
X16106420Y-24510130D01*
X16297598Y-24430941D01*
X16469655Y-24315977D01*
X16615977Y-24169655D01*
X16730941Y-23997598D01*
X16810130Y-23806420D01*
X16850500Y-23603465D01*
X16850500Y-23396535D01*
X16810130Y-23193580D01*
X16730941Y-23002402D01*
X16615977Y-22830345D01*
X16615975Y-22830342D01*
X16469657Y-22684024D01*
X16359474Y-22610403D01*
X16297598Y-22569059D01*
X16106420Y-22489870D01*
X16106412Y-22489868D01*
X15903469Y-22449500D01*
X15903465Y-22449500D01*
X15696535Y-22449500D01*
X15696530Y-22449500D01*
X15493587Y-22489868D01*
X15493579Y-22489870D01*
X15302403Y-22569058D01*
X15130342Y-22684024D01*
X14984024Y-22830342D01*
X14869058Y-23002403D01*
X14850191Y-23047953D01*
X14806350Y-23102356D01*
X14740056Y-23124421D01*
X14735630Y-23124500D01*
X13117915Y-23124500D01*
X13062461Y-23111409D01*
X9189160Y-21174758D01*
X9178894Y-21169001D01*
X7723994Y-20259689D01*
X7677578Y-20207465D01*
X7666764Y-20138438D01*
X7679227Y-20098247D01*
X7690568Y-20075992D01*
X7763553Y-19851368D01*
X7765434Y-19839492D01*
X7800500Y-19618097D01*
X7800500Y-19381902D01*
X7763553Y-19148631D01*
X7713013Y-18993086D01*
X7690568Y-18924008D01*
X7690566Y-18924005D01*
X7690566Y-18924003D01*
X7605734Y-18757512D01*
X7598149Y-18742625D01*
X15950001Y-18742625D01*
X15952765Y-18777756D01*
X15996469Y-18928189D01*
X16076207Y-19063019D01*
X16076214Y-19063028D01*
X16186971Y-19173785D01*
X16186980Y-19173792D01*
X16321810Y-19253530D01*
X16472240Y-19297233D01*
X16472245Y-19297234D01*
X16507385Y-19299999D01*
X17849999Y-19299999D01*
X18150000Y-19299999D01*
X19492604Y-19299999D01*
X19492625Y-19299998D01*
X19527756Y-19297234D01*
X19678189Y-19253530D01*
X19813019Y-19173792D01*
X19813028Y-19173785D01*
X19923785Y-19063028D01*
X19923792Y-19063019D01*
X20003530Y-18928189D01*
X20047233Y-18777759D01*
X20047234Y-18777754D01*
X20049999Y-18742620D01*
X20050000Y-18742607D01*
X20050000Y-18350000D01*
X18150000Y-18350000D01*
X18150000Y-19299999D01*
X17849999Y-19299999D01*
X17850000Y-19299998D01*
X17850000Y-18350000D01*
X15950001Y-18350000D01*
X15950001Y-18742625D01*
X7598149Y-18742625D01*
X7583343Y-18713567D01*
X7444517Y-18522490D01*
X7277510Y-18355483D01*
X7086433Y-18216657D01*
X7048806Y-18197485D01*
X6875996Y-18109433D01*
X6651368Y-18036446D01*
X6418097Y-17999500D01*
X6418092Y-17999500D01*
X5181908Y-17999500D01*
X5181903Y-17999500D01*
X4948631Y-18036446D01*
X4724003Y-18109433D01*
X4513566Y-18216657D01*
X4467674Y-18250000D01*
X4322490Y-18355483D01*
X4322488Y-18355485D01*
X4322487Y-18355485D01*
X4155485Y-18522487D01*
X4155485Y-18522488D01*
X4155483Y-18522490D01*
X4126590Y-18562258D01*
X4016657Y-18713566D01*
X3909433Y-18924003D01*
X3836446Y-19148631D01*
X3799500Y-19381902D01*
X500500Y-19381902D01*
X500500Y-17657379D01*
X15950000Y-17657379D01*
X15950000Y-18050000D01*
X17850000Y-18050000D01*
X17850000Y-17100000D01*
X16507396Y-17100000D01*
X16507374Y-17100001D01*
X16472243Y-17102765D01*
X16321810Y-17146469D01*
X16186980Y-17226207D01*
X16186971Y-17226214D01*
X16076214Y-17336971D01*
X16076207Y-17336980D01*
X15996469Y-17471810D01*
X15952766Y-17622240D01*
X15952765Y-17622245D01*
X15950000Y-17657379D01*
X500500Y-17657379D01*
X500500Y-14378006D01*
X750000Y-14378006D01*
X750000Y-14850000D01*
X1800000Y-14850000D01*
X1800000Y-15150000D01*
X750000Y-15150000D01*
X750000Y-15621993D01*
X788165Y-15862959D01*
X863560Y-16094998D01*
X974321Y-16312377D01*
X1117728Y-16509759D01*
X1290240Y-16682271D01*
X1487622Y-16825678D01*
X1705001Y-16936439D01*
X1937040Y-17011833D01*
X2150000Y-17045563D01*
X2150000Y-15977445D01*
X2234174Y-16000000D01*
X2365826Y-16000000D01*
X2450000Y-15977445D01*
X2450000Y-17045562D01*
X2662959Y-17011833D01*
X2894998Y-16936439D01*
X3112377Y-16825678D01*
X3309759Y-16682271D01*
X3482271Y-16509759D01*
X3625678Y-16312377D01*
X3736439Y-16094998D01*
X3811834Y-15862959D01*
X3850000Y-15621993D01*
X3850000Y-15150000D01*
X2800000Y-15150000D01*
X2800000Y-14850000D01*
X3850000Y-14850000D01*
X3850000Y-14378006D01*
X3811834Y-14137040D01*
X3736439Y-13905001D01*
X3625678Y-13687622D01*
X3482271Y-13490240D01*
X3309759Y-13317728D01*
X3112377Y-13174321D01*
X2894996Y-13063560D01*
X2662955Y-12988165D01*
X2450000Y-12954435D01*
X2450000Y-14022554D01*
X2365826Y-14000000D01*
X2234174Y-14000000D01*
X2150000Y-14022554D01*
X2150000Y-12954435D01*
X1937044Y-12988165D01*
X1705003Y-13063560D01*
X1487622Y-13174321D01*
X1290240Y-13317728D01*
X1117728Y-13490240D01*
X974321Y-13687622D01*
X863560Y-13905001D01*
X788165Y-14137040D01*
X750000Y-14378006D01*
X500500Y-14378006D01*
X500500Y-10098543D01*
X8849499Y-10098543D01*
X8887947Y-10291829D01*
X8887950Y-10291839D01*
X8963364Y-10473907D01*
X8963371Y-10473920D01*
X9072860Y-10637781D01*
X9072863Y-10637785D01*
X9212214Y-10777136D01*
X9212218Y-10777139D01*
X9376079Y-10886628D01*
X9376092Y-10886635D01*
X9558160Y-10962049D01*
X9558165Y-10962051D01*
X9558169Y-10962051D01*
X9558170Y-10962052D01*
X9751456Y-11000500D01*
X9751459Y-11000500D01*
X11448543Y-11000500D01*
X11578582Y-10974632D01*
X11641835Y-10962051D01*
X11782655Y-10903721D01*
X11823907Y-10886635D01*
X11823907Y-10886634D01*
X11823914Y-10886632D01*
X11987782Y-10777139D01*
X12127139Y-10637782D01*
X12236632Y-10473914D01*
X12245689Y-10452047D01*
X12289529Y-10397645D01*
X12355823Y-10375579D01*
X12360250Y-10375500D01*
X12985868Y-10375500D01*
X12992875Y-10375698D01*
X12994328Y-10375780D01*
X13028136Y-10377694D01*
X13028143Y-10377692D01*
X13035387Y-10377153D01*
X13042212Y-10376451D01*
X13049433Y-10375500D01*
X13049435Y-10375500D01*
X13083549Y-10366358D01*
X13090363Y-10364738D01*
X13124931Y-10357542D01*
X13124933Y-10357541D01*
X13131881Y-10355113D01*
X13138131Y-10352729D01*
X13144935Y-10349911D01*
X13144935Y-10349910D01*
X13144938Y-10349910D01*
X13175546Y-10332237D01*
X13181662Y-10328933D01*
X13213213Y-10313024D01*
X13213219Y-10313018D01*
X13219275Y-10308894D01*
X13224731Y-10304948D01*
X13230549Y-10300481D01*
X13230562Y-10300475D01*
X13255556Y-10275479D01*
X13260616Y-10270698D01*
X15257115Y-8488110D01*
X15320231Y-8458145D01*
X15387152Y-8466046D01*
X15424161Y-8481375D01*
X15493580Y-8510130D01*
X15691508Y-8549500D01*
X15696530Y-8550499D01*
X15696534Y-8550500D01*
X15696535Y-8550500D01*
X15903466Y-8550500D01*
X15903467Y-8550499D01*
X16106420Y-8510130D01*
X16297598Y-8430941D01*
X16469655Y-8315977D01*
X16615977Y-8169655D01*
X16730941Y-7997598D01*
X16810130Y-7806420D01*
X16850500Y-7603465D01*
X16850500Y-7396535D01*
X16810130Y-7193580D01*
X16730941Y-7002402D01*
X16615977Y-6830345D01*
X16615975Y-6830342D01*
X16469657Y-6684024D01*
X16383626Y-6626541D01*
X16297598Y-6569059D01*
X16106420Y-6489870D01*
X16106412Y-6489868D01*
X15903469Y-6449500D01*
X15903465Y-6449500D01*
X15696535Y-6449500D01*
X15696530Y-6449500D01*
X15493587Y-6489868D01*
X15493579Y-6489870D01*
X15302403Y-6569058D01*
X15130342Y-6684024D01*
X14984024Y-6830342D01*
X14869058Y-7002403D01*
X14789870Y-7193579D01*
X14789868Y-7193587D01*
X14749500Y-7396530D01*
X14749500Y-7603469D01*
X14791058Y-7812395D01*
X14788956Y-7812812D01*
X14789490Y-7872994D01*
X14752794Y-7931611D01*
X12892044Y-9592996D01*
X12828927Y-9622962D01*
X12809458Y-9624500D01*
X12360250Y-9624500D01*
X12293211Y-9604815D01*
X12247456Y-9552011D01*
X12245702Y-9547983D01*
X12236632Y-9526086D01*
X12211294Y-9488165D01*
X12127139Y-9362217D01*
X11987785Y-9222863D01*
X11987781Y-9222860D01*
X11823920Y-9113371D01*
X11823907Y-9113364D01*
X11641839Y-9037950D01*
X11641829Y-9037947D01*
X11448543Y-8999500D01*
X11448541Y-8999500D01*
X9751459Y-8999500D01*
X9751457Y-8999500D01*
X9558170Y-9037947D01*
X9558160Y-9037950D01*
X9376092Y-9113364D01*
X9376079Y-9113371D01*
X9212218Y-9222860D01*
X9212214Y-9222863D01*
X9072863Y-9362214D01*
X9072860Y-9362218D01*
X8963371Y-9526079D01*
X8963364Y-9526092D01*
X8887950Y-9708160D01*
X8887947Y-9708170D01*
X8849500Y-9901456D01*
X8849500Y-9901459D01*
X8849500Y-10098541D01*
X8849500Y-10098543D01*
X8849499Y-10098543D01*
X500500Y-10098543D01*
X500500Y-2409399D01*
X866900Y-2409399D01*
X866900Y-2409400D01*
X866900Y-4590600D01*
X2409400Y-6133100D01*
X4590600Y-6133100D01*
X5681075Y-5042625D01*
X6600001Y-5042625D01*
X6602765Y-5077756D01*
X6646469Y-5228189D01*
X6726207Y-5363019D01*
X6726214Y-5363028D01*
X6836971Y-5473785D01*
X6836980Y-5473792D01*
X6971810Y-5553530D01*
X7122240Y-5597233D01*
X7122245Y-5597234D01*
X7157385Y-5599999D01*
X8049999Y-5599999D01*
X8350000Y-5599999D01*
X9242604Y-5599999D01*
X9242625Y-5599998D01*
X9277756Y-5597234D01*
X9428189Y-5553530D01*
X9563019Y-5473792D01*
X9563028Y-5473785D01*
X9673785Y-5363028D01*
X9673792Y-5363019D01*
X9753530Y-5228189D01*
X9797233Y-5077759D01*
X9797234Y-5077754D01*
X9799999Y-5042620D01*
X9800000Y-5042607D01*
X9800000Y-4650000D01*
X8350000Y-4650000D01*
X8350000Y-5599999D01*
X8049999Y-5599999D01*
X8050000Y-5599998D01*
X8050000Y-4650000D01*
X6600001Y-4650000D01*
X6600001Y-5042625D01*
X5681075Y-5042625D01*
X6133100Y-4590600D01*
X6133100Y-3957379D01*
X6600000Y-3957379D01*
X6600000Y-4350000D01*
X8050000Y-4350000D01*
X8350000Y-4350000D01*
X9799999Y-4350000D01*
X9799999Y-3982598D01*
X10249500Y-3982598D01*
X10249500Y-5017401D01*
X10264184Y-5128929D01*
X10264185Y-5128933D01*
X10321668Y-5267711D01*
X10321669Y-5267712D01*
X10413114Y-5386886D01*
X10532288Y-5478331D01*
X10532287Y-5478331D01*
X10584602Y-5500000D01*
X10671070Y-5535816D01*
X10782606Y-5550500D01*
X10782613Y-5550500D01*
X12817387Y-5550500D01*
X12817394Y-5550500D01*
X12928930Y-5535816D01*
X12991404Y-5509938D01*
X13038855Y-5500500D01*
X28375500Y-5500500D01*
X28442539Y-5520185D01*
X28488294Y-5572989D01*
X28499500Y-5624500D01*
X28499500Y-5725500D01*
X28479815Y-5792539D01*
X28427011Y-5838294D01*
X28375500Y-5849500D01*
X28048342Y-5849500D01*
X28013739Y-5852223D01*
X28013733Y-5852224D01*
X27865618Y-5895256D01*
X27865615Y-5895257D01*
X27732849Y-5973774D01*
X27732840Y-5973781D01*
X27623781Y-6082840D01*
X27623774Y-6082849D01*
X27545257Y-6215615D01*
X27545256Y-6215618D01*
X27502224Y-6363733D01*
X27502223Y-6363739D01*
X27499500Y-6398342D01*
X27499500Y-7601657D01*
X27502223Y-7636260D01*
X27502224Y-7636266D01*
X27545256Y-7784381D01*
X27545257Y-7784384D01*
X27545258Y-7784386D01*
X27558284Y-7806412D01*
X27623774Y-7917150D01*
X27623781Y-7917159D01*
X27732840Y-8026218D01*
X27732844Y-8026221D01*
X27732846Y-8026223D01*
X27865614Y-8104742D01*
X27876047Y-8107773D01*
X28013733Y-8147775D01*
X28013736Y-8147775D01*
X28013738Y-8147776D01*
X28048350Y-8150500D01*
X28048358Y-8150500D01*
X29951642Y-8150500D01*
X29951650Y-8150500D01*
X29986262Y-8147776D01*
X29986264Y-8147775D01*
X29986266Y-8147775D01*
X30025323Y-8136427D01*
X30134386Y-8104742D01*
X30267154Y-8026223D01*
X30376223Y-7917154D01*
X30454742Y-7784386D01*
X30497776Y-7636262D01*
X30499467Y-7614772D01*
X30524350Y-7549484D01*
X30580580Y-7508012D01*
X30623085Y-7500500D01*
X31375500Y-7500500D01*
X31442539Y-7520185D01*
X31488294Y-7572989D01*
X31499500Y-7624500D01*
X31499500Y-8464525D01*
X31479815Y-8531564D01*
X31427011Y-8577319D01*
X31357853Y-8587263D01*
X31332168Y-8580707D01*
X31265340Y-8555782D01*
X31265336Y-8555781D01*
X31265335Y-8555781D01*
X31206915Y-8549500D01*
X31206905Y-8549500D01*
X30393087Y-8549500D01*
X30393081Y-8549501D01*
X30334664Y-8555780D01*
X30202514Y-8605069D01*
X30202507Y-8605073D01*
X30089597Y-8689597D01*
X30005073Y-8802507D01*
X30005069Y-8802514D01*
X29955782Y-8934661D01*
X29955781Y-8934665D01*
X29949500Y-8993085D01*
X29949500Y-8993093D01*
X29949500Y-9582232D01*
X29929815Y-9649271D01*
X29897573Y-9683135D01*
X29200900Y-10180758D01*
X29191100Y-10187084D01*
X29168698Y-10200093D01*
X29168697Y-10200094D01*
X29163413Y-10205404D01*
X29147609Y-10218825D01*
X29141522Y-10223173D01*
X29141512Y-10223182D01*
X29125049Y-10243179D01*
X29117222Y-10251822D01*
X29098966Y-10270169D01*
X29098952Y-10270187D01*
X29095228Y-10276674D01*
X29083440Y-10293722D01*
X29078681Y-10299503D01*
X29078674Y-10299515D01*
X29067949Y-10323088D01*
X29062625Y-10333466D01*
X29049736Y-10355919D01*
X29049730Y-10355933D01*
X29047813Y-10363159D01*
X29040835Y-10382691D01*
X29037736Y-10389503D01*
X29037734Y-10389510D01*
X29033477Y-10415051D01*
X29031020Y-10426457D01*
X29024379Y-10451490D01*
X29024378Y-10451494D01*
X29024397Y-10458975D01*
X29022710Y-10479659D01*
X29021481Y-10487030D01*
X29023980Y-10512808D01*
X29024558Y-10524464D01*
X29026455Y-11292909D01*
X29006936Y-11359997D01*
X28990137Y-11380896D01*
X28919299Y-11451734D01*
X28881399Y-11529259D01*
X28834270Y-11580841D01*
X28766736Y-11598755D01*
X28700238Y-11577313D01*
X28658599Y-11529258D01*
X28620700Y-11451734D01*
X28620699Y-11451733D01*
X28620699Y-11451732D01*
X28533268Y-11364301D01*
X28513389Y-11354583D01*
X28422179Y-11309993D01*
X28422177Y-11309992D01*
X28350161Y-11299500D01*
X27919845Y-11299500D01*
X27847821Y-11309993D01*
X27736731Y-11364301D01*
X27649300Y-11451732D01*
X27649300Y-11451733D01*
X27611399Y-11529259D01*
X27564270Y-11580841D01*
X27496736Y-11598755D01*
X27430238Y-11577313D01*
X27388599Y-11529258D01*
X27350700Y-11451734D01*
X27350699Y-11451733D01*
X27350699Y-11451732D01*
X27276819Y-11377852D01*
X27243334Y-11316529D01*
X27240500Y-11290171D01*
X27240500Y-9524906D01*
X27241115Y-9512572D01*
X27241330Y-9510420D01*
X27243555Y-9488165D01*
X27242126Y-9479428D01*
X27240500Y-9459411D01*
X27240500Y-9450566D01*
X27240499Y-9450562D01*
X27234151Y-9426871D01*
X27231555Y-9414813D01*
X27227593Y-9390590D01*
X27223950Y-9382518D01*
X27217199Y-9363606D01*
X27214910Y-9355062D01*
X27214908Y-9355058D01*
X27202645Y-9333817D01*
X27197010Y-9322828D01*
X27186921Y-9300473D01*
X27181313Y-9293620D01*
X27169897Y-9277098D01*
X27165473Y-9269435D01*
X27148132Y-9252095D01*
X27139854Y-9242949D01*
X27124310Y-9223952D01*
X27117118Y-9218782D01*
X27101817Y-9205780D01*
X27095564Y-9199527D01*
X27095558Y-9199522D01*
X27074316Y-9187258D01*
X27063943Y-9180559D01*
X25402124Y-7986016D01*
X25359178Y-7930903D01*
X25350499Y-7885329D01*
X25350499Y-7293087D01*
X25350498Y-7293081D01*
X25344219Y-7234664D01*
X25298912Y-7113189D01*
X25294929Y-7102511D01*
X25210403Y-6989597D01*
X25097489Y-6905071D01*
X25097487Y-6905070D01*
X25097485Y-6905069D01*
X24965338Y-6855782D01*
X24965337Y-6855781D01*
X24965335Y-6855781D01*
X24906915Y-6849500D01*
X24906905Y-6849500D01*
X24093087Y-6849500D01*
X24093081Y-6849501D01*
X24034664Y-6855780D01*
X23902514Y-6905069D01*
X23902507Y-6905073D01*
X23789597Y-6989597D01*
X23705073Y-7102507D01*
X23705069Y-7102514D01*
X23655780Y-7234665D01*
X23653998Y-7242210D01*
X23652502Y-7241856D01*
X23629137Y-7298242D01*
X23571739Y-7338082D01*
X23522576Y-7344016D01*
X21890635Y-7211696D01*
X21825405Y-7186658D01*
X21786095Y-7135555D01*
X21730941Y-7002403D01*
X21730941Y-7002402D01*
X21615977Y-6830345D01*
X21615975Y-6830342D01*
X21469657Y-6684024D01*
X21383626Y-6626541D01*
X21297598Y-6569059D01*
X21106420Y-6489870D01*
X21106412Y-6489868D01*
X20903469Y-6449500D01*
X20903465Y-6449500D01*
X20696535Y-6449500D01*
X20696530Y-6449500D01*
X20493587Y-6489868D01*
X20493579Y-6489870D01*
X20302403Y-6569058D01*
X20130342Y-6684024D01*
X19984024Y-6830342D01*
X19869058Y-7002403D01*
X19789870Y-7193579D01*
X19789868Y-7193587D01*
X19749500Y-7396530D01*
X19749500Y-7603469D01*
X19789868Y-7806412D01*
X19789870Y-7806420D01*
X19864261Y-7986016D01*
X19869059Y-7997598D01*
X19888187Y-8026225D01*
X19984024Y-8169657D01*
X20130342Y-8315975D01*
X20130345Y-8315977D01*
X20302402Y-8430941D01*
X20493580Y-8510130D01*
X20691508Y-8549500D01*
X20696530Y-8550499D01*
X20696534Y-8550500D01*
X20696535Y-8550500D01*
X20903466Y-8550500D01*
X20903467Y-8550499D01*
X21106420Y-8510130D01*
X21297598Y-8430941D01*
X21469655Y-8315977D01*
X21615977Y-8169655D01*
X21719221Y-8015137D01*
X21772832Y-7970333D01*
X21832342Y-7960435D01*
X23535522Y-8098531D01*
X23600751Y-8123569D01*
X23642088Y-8179898D01*
X23649500Y-8222124D01*
X23649500Y-8306911D01*
X23649501Y-8306918D01*
X23655780Y-8365335D01*
X23705069Y-8497485D01*
X23705070Y-8497487D01*
X23705071Y-8497489D01*
X23789597Y-8610403D01*
X23902511Y-8694929D01*
X24034665Y-8744219D01*
X24093085Y-8750500D01*
X24906914Y-8750499D01*
X24965335Y-8744219D01*
X24965340Y-8744217D01*
X25038249Y-8717024D01*
X25107941Y-8712040D01*
X25153957Y-8732519D01*
X25578866Y-9037950D01*
X26409639Y-9635123D01*
X26437875Y-9655419D01*
X26480821Y-9710532D01*
X26489500Y-9756106D01*
X26489500Y-11290171D01*
X26469815Y-11357210D01*
X26453181Y-11377852D01*
X26379300Y-11451732D01*
X26379300Y-11451733D01*
X26368862Y-11473084D01*
X26321734Y-11524666D01*
X26254199Y-11542580D01*
X26187701Y-11521138D01*
X26146977Y-11474918D01*
X26119020Y-11420050D01*
X26024949Y-11325979D01*
X25906401Y-11265575D01*
X25808058Y-11250000D01*
X25745000Y-11250000D01*
X25745000Y-13799999D01*
X25808051Y-13799999D01*
X25906405Y-13784422D01*
X26024949Y-13724020D01*
X26119021Y-13629948D01*
X26146977Y-13575082D01*
X26194951Y-13524286D01*
X26262772Y-13507490D01*
X26328907Y-13530027D01*
X26368863Y-13576916D01*
X26379301Y-13598268D01*
X26466731Y-13685698D01*
X26466732Y-13685698D01*
X26466734Y-13685700D01*
X26577821Y-13740007D01*
X26649839Y-13750500D01*
X27080160Y-13750499D01*
X27152179Y-13740007D01*
X27263266Y-13685700D01*
X27350700Y-13598266D01*
X27388600Y-13520739D01*
X27435727Y-13469159D01*
X27503261Y-13451244D01*
X27569760Y-13472685D01*
X27611399Y-13520739D01*
X27625949Y-13550500D01*
X27649301Y-13598268D01*
X27736731Y-13685698D01*
X27736732Y-13685698D01*
X27736734Y-13685700D01*
X27847821Y-13740007D01*
X27919839Y-13750500D01*
X28350160Y-13750499D01*
X28422179Y-13740007D01*
X28533266Y-13685700D01*
X28620700Y-13598266D01*
X28658600Y-13520739D01*
X28705727Y-13469159D01*
X28773261Y-13451244D01*
X28839760Y-13472685D01*
X28881399Y-13520739D01*
X28895949Y-13550500D01*
X28919301Y-13598268D01*
X29006731Y-13685698D01*
X29006732Y-13685698D01*
X29006734Y-13685700D01*
X29117821Y-13740007D01*
X29189839Y-13750500D01*
X29620160Y-13750499D01*
X29692179Y-13740007D01*
X29803266Y-13685700D01*
X29890700Y-13598266D01*
X29945007Y-13487179D01*
X29955500Y-13415161D01*
X29955499Y-11634840D01*
X29945007Y-11562821D01*
X29890700Y-11451734D01*
X29890698Y-11451732D01*
X29890698Y-11451731D01*
X29813764Y-11374797D01*
X29780279Y-11313474D01*
X29777445Y-11287422D01*
X29777329Y-11240627D01*
X29776135Y-10756901D01*
X29795654Y-10689814D01*
X29828057Y-10655696D01*
X30142710Y-10430944D01*
X30208701Y-10407998D01*
X30258111Y-10415666D01*
X30334665Y-10444219D01*
X30393085Y-10450500D01*
X31206914Y-10450499D01*
X31265335Y-10444219D01*
X31332168Y-10419291D01*
X31401858Y-10414308D01*
X31463181Y-10447793D01*
X31496666Y-10509116D01*
X31499500Y-10535474D01*
X31499500Y-14352573D01*
X31486409Y-14408028D01*
X31063058Y-15254729D01*
X31058478Y-15263071D01*
X30688907Y-15879024D01*
X30375283Y-16401731D01*
X30322743Y-16489297D01*
X30271372Y-16536656D01*
X30216414Y-16549500D01*
X30040343Y-16549500D01*
X29973304Y-16529815D01*
X29928942Y-16479960D01*
X29890700Y-16401734D01*
X29890698Y-16401732D01*
X29890698Y-16401731D01*
X29803268Y-16314301D01*
X29692177Y-16259992D01*
X29620161Y-16249500D01*
X29189845Y-16249500D01*
X29117821Y-16259993D01*
X29006731Y-16314301D01*
X28919300Y-16401732D01*
X28919300Y-16401733D01*
X28881399Y-16479259D01*
X28834270Y-16530841D01*
X28766736Y-16548755D01*
X28700238Y-16527313D01*
X28658599Y-16479258D01*
X28620700Y-16401734D01*
X28620699Y-16401733D01*
X28620699Y-16401732D01*
X28533268Y-16314301D01*
X28422177Y-16259992D01*
X28350161Y-16249500D01*
X27919845Y-16249500D01*
X27847821Y-16259993D01*
X27736731Y-16314301D01*
X27649300Y-16401732D01*
X27649300Y-16401733D01*
X27611399Y-16479259D01*
X27564270Y-16530841D01*
X27496736Y-16548755D01*
X27430238Y-16527313D01*
X27388599Y-16479258D01*
X27350700Y-16401734D01*
X27350699Y-16401733D01*
X27350699Y-16401732D01*
X27263268Y-16314301D01*
X27152177Y-16259992D01*
X27080161Y-16249500D01*
X26649845Y-16249500D01*
X26577821Y-16259993D01*
X26466731Y-16314301D01*
X26379300Y-16401732D01*
X26379300Y-16401733D01*
X26341399Y-16479259D01*
X26294270Y-16530841D01*
X26226736Y-16548755D01*
X26160238Y-16527313D01*
X26118599Y-16479258D01*
X26080700Y-16401734D01*
X26080699Y-16401733D01*
X26080699Y-16401732D01*
X25993268Y-16314301D01*
X25882177Y-16259992D01*
X25810161Y-16249500D01*
X25379845Y-16249500D01*
X25307821Y-16259993D01*
X25196731Y-16314301D01*
X25109301Y-16401731D01*
X25054992Y-16512822D01*
X25044500Y-16584838D01*
X25044500Y-18365159D01*
X25052368Y-18419159D01*
X25054993Y-18437179D01*
X25109300Y-18548266D01*
X25183182Y-18622148D01*
X25216666Y-18683469D01*
X25219500Y-18709828D01*
X25219500Y-18771984D01*
X25199815Y-18839023D01*
X25147011Y-18884778D01*
X25077853Y-18894722D01*
X25052168Y-18888166D01*
X24965340Y-18855782D01*
X24965336Y-18855781D01*
X24965335Y-18855781D01*
X24906915Y-18849500D01*
X24906905Y-18849500D01*
X24093087Y-18849500D01*
X24093081Y-18849501D01*
X24034664Y-18855780D01*
X23902514Y-18905069D01*
X23902510Y-18905071D01*
X23898306Y-18908219D01*
X23832840Y-18932632D01*
X23764568Y-18917777D01*
X23715165Y-18868370D01*
X23700000Y-18808948D01*
X23700000Y-18550000D01*
X21900001Y-18550000D01*
X21900001Y-18902270D01*
X21910420Y-18989054D01*
X21910422Y-18989058D01*
X21964876Y-19127144D01*
X21964879Y-19127150D01*
X22054571Y-19245428D01*
X22176554Y-19337930D01*
X22218077Y-19394122D01*
X22222629Y-19463844D01*
X22188764Y-19524958D01*
X22127235Y-19558061D01*
X22108703Y-19560532D01*
X21426087Y-19599538D01*
X21358034Y-19583710D01*
X21309341Y-19533602D01*
X21296700Y-19496126D01*
X21295949Y-19491618D01*
X21030301Y-17897729D01*
X21900000Y-17897729D01*
X21900000Y-18250000D01*
X22650000Y-18250000D01*
X22950000Y-18250000D01*
X23699999Y-18250000D01*
X23699999Y-17897729D01*
X23689579Y-17810945D01*
X23689577Y-17810941D01*
X23635123Y-17672855D01*
X23635120Y-17672849D01*
X23545428Y-17554571D01*
X23427150Y-17464879D01*
X23427144Y-17464876D01*
X23289056Y-17410421D01*
X23202271Y-17400000D01*
X22950000Y-17400000D01*
X22950000Y-18250000D01*
X22650000Y-18250000D01*
X22650000Y-17400000D01*
X22397729Y-17400000D01*
X22310945Y-17410420D01*
X22310941Y-17410422D01*
X22172855Y-17464876D01*
X22172849Y-17464879D01*
X22054571Y-17554571D01*
X21964879Y-17672849D01*
X21964876Y-17672855D01*
X21910421Y-17810943D01*
X21900000Y-17897729D01*
X21030301Y-17897729D01*
X20934505Y-17322956D01*
X20942901Y-17253595D01*
X20987464Y-17199782D01*
X21007367Y-17188860D01*
X21947998Y-16779890D01*
X22017327Y-16771213D01*
X22080341Y-16801394D01*
X22085121Y-16805927D01*
X22089596Y-16810402D01*
X22089597Y-16810403D01*
X22202511Y-16894929D01*
X22334665Y-16944219D01*
X22393085Y-16950500D01*
X23206914Y-16950499D01*
X23265335Y-16944219D01*
X23397489Y-16894929D01*
X23510403Y-16810403D01*
X23594929Y-16697489D01*
X23644219Y-16565335D01*
X23650500Y-16506915D01*
X23650499Y-15506924D01*
X23650500Y-15506915D01*
X23650499Y-14493086D01*
X23644219Y-14434665D01*
X23631880Y-14401583D01*
X23594930Y-14302514D01*
X23594929Y-14302511D01*
X23510403Y-14189597D01*
X23397489Y-14105071D01*
X23397487Y-14105070D01*
X23397485Y-14105069D01*
X23265338Y-14055782D01*
X23265337Y-14055781D01*
X23265335Y-14055781D01*
X23206915Y-14049500D01*
X23206905Y-14049500D01*
X22393087Y-14049500D01*
X22393081Y-14049501D01*
X22334664Y-14055780D01*
X22202514Y-14105069D01*
X22202507Y-14105073D01*
X22089597Y-14189597D01*
X22005073Y-14302507D01*
X22005070Y-14302513D01*
X21980340Y-14368817D01*
X21938468Y-14424750D01*
X21873003Y-14449167D01*
X21842360Y-14447552D01*
X21327636Y-14355637D01*
X21265101Y-14324474D01*
X21229341Y-14264449D01*
X21226965Y-14252990D01*
X21219709Y-14207174D01*
X21158884Y-14019975D01*
X21158882Y-14019972D01*
X21158882Y-14019970D01*
X21087573Y-13880019D01*
X21069524Y-13844595D01*
X20953828Y-13685354D01*
X20814646Y-13546172D01*
X20811958Y-13544219D01*
X20806887Y-13540534D01*
X20764224Y-13485201D01*
X20758249Y-13415587D01*
X20762141Y-13401008D01*
X20779918Y-13347677D01*
X20845359Y-13151353D01*
X20851836Y-13135617D01*
X20858513Y-13122117D01*
X20862110Y-13104125D01*
X20866061Y-13089246D01*
X20871863Y-13071845D01*
X20872764Y-13056819D01*
X20874947Y-13039940D01*
X21294669Y-10941332D01*
X21327119Y-10879455D01*
X21387871Y-10844945D01*
X21405666Y-10842104D01*
X23114231Y-10695656D01*
X23182707Y-10709543D01*
X23232804Y-10758247D01*
X23248618Y-10826304D01*
X23225126Y-10892106D01*
X23193712Y-10922305D01*
X23085331Y-10994723D01*
X23085327Y-10994726D01*
X22994726Y-11085327D01*
X22994723Y-11085331D01*
X22923538Y-11191866D01*
X22923533Y-11191875D01*
X22874499Y-11310255D01*
X22874497Y-11310261D01*
X22849500Y-11435928D01*
X22849500Y-11525500D01*
X22829815Y-11592539D01*
X22777011Y-11638294D01*
X22725500Y-11649500D01*
X22393088Y-11649500D01*
X22393081Y-11649501D01*
X22334664Y-11655780D01*
X22202514Y-11705069D01*
X22202507Y-11705073D01*
X22089597Y-11789597D01*
X22005073Y-11902507D01*
X22005069Y-11902514D01*
X21955782Y-12034661D01*
X21955781Y-12034665D01*
X21949500Y-12093085D01*
X21949500Y-12093092D01*
X21949500Y-12093093D01*
X21949500Y-13106912D01*
X21949501Y-13106918D01*
X21955780Y-13165335D01*
X22005069Y-13297485D01*
X22005070Y-13297487D01*
X22005071Y-13297489D01*
X22089597Y-13410403D01*
X22202511Y-13494929D01*
X22334665Y-13544219D01*
X22393085Y-13550500D01*
X23206914Y-13550499D01*
X23265335Y-13544219D01*
X23397489Y-13494929D01*
X23506866Y-13413051D01*
X24995001Y-13413051D01*
X25010577Y-13511405D01*
X25070979Y-13629949D01*
X25165050Y-13724020D01*
X25283598Y-13784424D01*
X25381940Y-13799999D01*
X25444999Y-13799998D01*
X25445000Y-13799998D01*
X25445000Y-12675000D01*
X24995001Y-12675000D01*
X24995001Y-13413051D01*
X23506866Y-13413051D01*
X23510403Y-13410403D01*
X23594929Y-13297489D01*
X23644219Y-13165335D01*
X23650500Y-13106915D01*
X23650499Y-12231853D01*
X23669883Y-12165284D01*
X23676147Y-12155442D01*
X23728745Y-12109454D01*
X23733307Y-12107456D01*
X23768002Y-12093085D01*
X23808127Y-12076465D01*
X23914669Y-12005276D01*
X24005276Y-11914669D01*
X24076465Y-11808127D01*
X24125501Y-11689744D01*
X24135735Y-11638294D01*
X24136004Y-11636941D01*
X24995000Y-11636941D01*
X24995000Y-12375000D01*
X25445000Y-12375000D01*
X25445000Y-11250000D01*
X25444999Y-11249999D01*
X25381949Y-11250000D01*
X25283592Y-11265577D01*
X25274682Y-11270117D01*
X25157844Y-11333185D01*
X25070978Y-11420052D01*
X25010575Y-11538598D01*
X24995000Y-11636941D01*
X24136004Y-11636941D01*
X24150500Y-11564071D01*
X24150500Y-11435928D01*
X24124313Y-11304282D01*
X24125515Y-11304042D01*
X24124950Y-11240627D01*
X24162198Y-11181514D01*
X24225492Y-11151923D01*
X24244223Y-11150499D01*
X24906914Y-11150499D01*
X24965335Y-11144219D01*
X25097489Y-11094929D01*
X25210403Y-11010403D01*
X25294929Y-10897489D01*
X25344219Y-10765335D01*
X25350500Y-10706915D01*
X25350499Y-9693086D01*
X25344219Y-9634665D01*
X25333180Y-9605069D01*
X25302380Y-9522488D01*
X25294929Y-9502511D01*
X25210403Y-9389597D01*
X25097489Y-9305071D01*
X25097487Y-9305070D01*
X25097485Y-9305069D01*
X24965338Y-9255782D01*
X24965337Y-9255781D01*
X24965335Y-9255781D01*
X24906915Y-9249500D01*
X24906905Y-9249500D01*
X24093087Y-9249500D01*
X24093081Y-9249501D01*
X24034664Y-9255780D01*
X23902514Y-9305069D01*
X23902507Y-9305073D01*
X23789597Y-9389597D01*
X23705073Y-9502507D01*
X23705069Y-9502514D01*
X23659572Y-9624500D01*
X23655781Y-9634665D01*
X23649500Y-9693085D01*
X23649500Y-9693093D01*
X23649500Y-9782196D01*
X23629815Y-9849235D01*
X23577011Y-9894990D01*
X23536090Y-9905743D01*
X20973202Y-10125419D01*
X20970596Y-10125615D01*
X20926497Y-10128460D01*
X20924567Y-10128842D01*
X20924012Y-10128920D01*
X20923866Y-10128953D01*
X20921328Y-10129483D01*
X20921137Y-10129520D01*
X20920592Y-10129672D01*
X20918680Y-10130092D01*
X20877161Y-10145120D01*
X20874699Y-10145982D01*
X20832838Y-10160144D01*
X20831088Y-10161005D01*
X20830575Y-10161223D01*
X20830401Y-10161314D01*
X20828100Y-10162475D01*
X20827941Y-10162553D01*
X20827454Y-10162840D01*
X20825710Y-10163743D01*
X20789479Y-10189016D01*
X20787326Y-10190485D01*
X20750578Y-10214985D01*
X20749109Y-10216271D01*
X20748660Y-10216622D01*
X20748525Y-10216746D01*
X20746619Y-10218450D01*
X20746466Y-10218583D01*
X20746064Y-10218993D01*
X20744621Y-10220310D01*
X20716154Y-10254112D01*
X20714455Y-10256086D01*
X20685309Y-10289253D01*
X20684223Y-10290875D01*
X20683872Y-10291341D01*
X20683760Y-10291517D01*
X20682354Y-10293666D01*
X20682271Y-10293789D01*
X20681996Y-10294276D01*
X20680931Y-10295941D01*
X20662186Y-10335954D01*
X20661054Y-10338306D01*
X20641485Y-10377886D01*
X20640857Y-10379730D01*
X20640638Y-10380271D01*
X20640577Y-10380467D01*
X20639772Y-10382916D01*
X20639724Y-10383055D01*
X20639584Y-10383600D01*
X20638990Y-10385470D01*
X20631242Y-10428965D01*
X20630756Y-10431534D01*
X20246092Y-12354853D01*
X20213642Y-12416731D01*
X20152890Y-12451241D01*
X20083125Y-12447428D01*
X20026496Y-12406503D01*
X20000982Y-12341458D01*
X20000500Y-12330535D01*
X20000500Y-12282612D01*
X20000499Y-12282598D01*
X19991351Y-12213114D01*
X19985816Y-12171070D01*
X19928331Y-12032288D01*
X19836886Y-11913114D01*
X19717712Y-11821669D01*
X19717711Y-11821668D01*
X19717712Y-11821668D01*
X19578933Y-11764185D01*
X19578931Y-11764184D01*
X19578930Y-11764184D01*
X19564988Y-11762348D01*
X19467401Y-11749500D01*
X19467394Y-11749500D01*
X17753024Y-11749500D01*
X17685985Y-11729815D01*
X17653306Y-11699205D01*
X17621210Y-11655781D01*
X17174780Y-11051788D01*
X17156654Y-11002270D01*
X17800001Y-11002270D01*
X17810420Y-11089054D01*
X17810422Y-11089058D01*
X17864876Y-11227144D01*
X17864879Y-11227150D01*
X17954571Y-11345428D01*
X18072849Y-11435120D01*
X18072855Y-11435123D01*
X18210943Y-11489578D01*
X18297729Y-11499999D01*
X18549999Y-11499999D01*
X18850000Y-11499999D01*
X19102271Y-11499999D01*
X19189054Y-11489579D01*
X19189058Y-11489577D01*
X19327144Y-11435123D01*
X19327150Y-11435120D01*
X19445428Y-11345428D01*
X19535120Y-11227150D01*
X19535123Y-11227144D01*
X19589578Y-11089056D01*
X19600000Y-11002270D01*
X19600000Y-10650000D01*
X18850000Y-10650000D01*
X18850000Y-11499999D01*
X18549999Y-11499999D01*
X18550000Y-11499998D01*
X18550000Y-10650000D01*
X17800001Y-10650000D01*
X17800001Y-11002270D01*
X17156654Y-11002270D01*
X17150763Y-10986178D01*
X17150499Y-10978114D01*
X17150499Y-9997729D01*
X17800000Y-9997729D01*
X17800000Y-10350000D01*
X18550000Y-10350000D01*
X18850000Y-10350000D01*
X19599999Y-10350000D01*
X19599999Y-9997729D01*
X19589579Y-9910945D01*
X19589577Y-9910941D01*
X19535123Y-9772855D01*
X19535120Y-9772849D01*
X19445428Y-9654571D01*
X19327150Y-9564879D01*
X19327144Y-9564876D01*
X19189056Y-9510421D01*
X19102271Y-9500000D01*
X18850000Y-9500000D01*
X18850000Y-10350000D01*
X18550000Y-10350000D01*
X18550000Y-9500000D01*
X18297729Y-9500000D01*
X18210945Y-9510420D01*
X18210941Y-9510422D01*
X18072855Y-9564876D01*
X18072849Y-9564879D01*
X17954571Y-9654571D01*
X17864879Y-9772849D01*
X17864876Y-9772855D01*
X17810421Y-9910943D01*
X17800000Y-9997729D01*
X17150499Y-9997729D01*
X17150499Y-9993086D01*
X17144219Y-9934665D01*
X17140244Y-9924008D01*
X17094930Y-9802514D01*
X17094929Y-9802511D01*
X17010403Y-9689597D01*
X16897489Y-9605071D01*
X16897487Y-9605070D01*
X16897485Y-9605069D01*
X16765338Y-9555782D01*
X16765337Y-9555781D01*
X16765335Y-9555781D01*
X16706915Y-9549500D01*
X16706905Y-9549500D01*
X15893087Y-9549500D01*
X15893081Y-9549501D01*
X15834664Y-9555780D01*
X15702514Y-9605069D01*
X15702507Y-9605073D01*
X15589597Y-9689597D01*
X15505073Y-9802507D01*
X15505069Y-9802514D01*
X15455782Y-9934661D01*
X15455781Y-9934665D01*
X15449500Y-9993085D01*
X15449500Y-9993092D01*
X15449500Y-9993093D01*
X15449500Y-11006912D01*
X15449501Y-11006918D01*
X15455780Y-11065335D01*
X15505069Y-11197485D01*
X15505070Y-11197487D01*
X15505071Y-11197489D01*
X15589597Y-11310403D01*
X15702511Y-11394929D01*
X15834665Y-11444219D01*
X15893085Y-11450500D01*
X16473061Y-11450499D01*
X16540100Y-11470183D01*
X16572779Y-11500795D01*
X16611692Y-11553442D01*
X16635710Y-11619053D01*
X16620442Y-11687235D01*
X16570737Y-11736338D01*
X16528160Y-11750085D01*
X16421070Y-11764184D01*
X16421066Y-11764185D01*
X16282288Y-11821668D01*
X16163114Y-11913114D01*
X16071668Y-12032288D01*
X16014185Y-12171066D01*
X16014184Y-12171070D01*
X15999500Y-12282598D01*
X15999500Y-13317401D01*
X16014184Y-13428929D01*
X16014185Y-13428933D01*
X16071668Y-13567711D01*
X16071669Y-13567712D01*
X16163114Y-13686886D01*
X16282288Y-13778331D01*
X16282287Y-13778331D01*
X16358186Y-13809768D01*
X16421070Y-13835816D01*
X16532606Y-13850500D01*
X18610514Y-13850500D01*
X18677553Y-13870185D01*
X18690815Y-13880014D01*
X18780933Y-13956614D01*
X18819263Y-14015027D01*
X18819927Y-14084894D01*
X18818554Y-14089410D01*
X18780291Y-14207169D01*
X18780291Y-14207172D01*
X18749500Y-14401577D01*
X18749500Y-14598422D01*
X18780290Y-14792826D01*
X18841117Y-14980029D01*
X18899946Y-15095486D01*
X18930476Y-15155405D01*
X19046172Y-15314646D01*
X19185354Y-15453828D01*
X19344595Y-15569524D01*
X19427455Y-15611743D01*
X19519970Y-15658882D01*
X19519972Y-15658882D01*
X19519975Y-15658884D01*
X19620317Y-15691487D01*
X19707173Y-15719709D01*
X19901578Y-15750500D01*
X19901583Y-15750500D01*
X20098422Y-15750500D01*
X20292826Y-15719709D01*
X20480025Y-15658884D01*
X20655405Y-15569524D01*
X20814646Y-15453828D01*
X20953828Y-15314646D01*
X21069524Y-15155405D01*
X21069529Y-15155393D01*
X21071131Y-15152781D01*
X21072005Y-15151989D01*
X21072388Y-15151463D01*
X21072498Y-15151543D01*
X21122936Y-15105898D01*
X21191864Y-15094465D01*
X21198632Y-15095480D01*
X21847299Y-15211314D01*
X21909833Y-15242477D01*
X21945593Y-15302502D01*
X21949500Y-15333383D01*
X21949500Y-15879024D01*
X21929815Y-15946063D01*
X21877011Y-15991818D01*
X21874942Y-15992741D01*
X20402526Y-16632922D01*
X20389678Y-16637657D01*
X20348350Y-16656457D01*
X20346454Y-16657301D01*
X20304789Y-16675418D01*
X20304429Y-16675607D01*
X20303106Y-16676433D01*
X20301366Y-16677499D01*
X20299967Y-16678339D01*
X20299640Y-16678570D01*
X20264546Y-16707458D01*
X20262935Y-16708762D01*
X20227426Y-16737008D01*
X20227129Y-16737282D01*
X20226045Y-16738444D01*
X20224609Y-16739956D01*
X20223540Y-16741062D01*
X20223273Y-16741382D01*
X20196884Y-16778327D01*
X20195659Y-16780010D01*
X20168660Y-16816495D01*
X20168428Y-16816863D01*
X20167702Y-16818227D01*
X20166718Y-16820038D01*
X20165945Y-16821431D01*
X20165766Y-16821820D01*
X20149847Y-16864311D01*
X20149101Y-16866253D01*
X20132451Y-16908519D01*
X20132326Y-16908922D01*
X20131967Y-16910476D01*
X20131481Y-16912500D01*
X20131105Y-16914004D01*
X20131038Y-16914396D01*
X20126663Y-16959523D01*
X20126445Y-16961594D01*
X20121297Y-17006772D01*
X20121282Y-17007164D01*
X20121337Y-17008769D01*
X20121390Y-17010826D01*
X20121417Y-17012407D01*
X20121453Y-17012798D01*
X20128920Y-17057601D01*
X20129245Y-17059659D01*
X20135956Y-17104570D01*
X20138976Y-17117938D01*
X20164990Y-17274024D01*
X20156594Y-17343387D01*
X20112031Y-17397200D01*
X20045448Y-17418378D01*
X19977985Y-17400196D01*
X19935945Y-17357529D01*
X19923794Y-17336983D01*
X19923785Y-17336971D01*
X19813028Y-17226214D01*
X19813019Y-17226207D01*
X19678189Y-17146469D01*
X19527759Y-17102766D01*
X19527754Y-17102765D01*
X19492620Y-17100000D01*
X18150000Y-17100000D01*
X18150000Y-18050000D01*
X20049999Y-18050000D01*
X20063441Y-18036557D01*
X20069684Y-18015298D01*
X20122488Y-17969543D01*
X20191646Y-17959599D01*
X20255202Y-17988624D01*
X20292976Y-18047402D01*
X20296312Y-18061952D01*
X20625167Y-20035085D01*
X20626652Y-20048390D01*
X20627932Y-20070776D01*
X20627933Y-20070782D01*
X20631370Y-20081194D01*
X20635931Y-20099668D01*
X20637735Y-20110493D01*
X20643425Y-20123000D01*
X20646124Y-20128933D01*
X20647021Y-20130903D01*
X20651900Y-20143374D01*
X20658929Y-20164664D01*
X20658930Y-20164666D01*
X20664942Y-20173828D01*
X20674135Y-20190504D01*
X20678679Y-20200491D01*
X20692925Y-20217796D01*
X20700862Y-20228575D01*
X20713167Y-20247327D01*
X20713169Y-20247330D01*
X20721352Y-20254628D01*
X20734549Y-20268358D01*
X20741515Y-20276820D01*
X20741522Y-20276827D01*
X20759763Y-20289856D01*
X20770224Y-20298216D01*
X20786956Y-20313139D01*
X20796754Y-20318073D01*
X20813043Y-20327913D01*
X20818995Y-20332164D01*
X20821973Y-20334291D01*
X20841275Y-20341522D01*
X20842968Y-20342156D01*
X20855233Y-20347523D01*
X20875260Y-20357609D01*
X20885996Y-20359837D01*
X20904290Y-20365128D01*
X20914559Y-20368976D01*
X20936886Y-20371140D01*
X20950083Y-20373144D01*
X20972068Y-20377709D01*
X20983016Y-20377083D01*
X21002058Y-20377459D01*
X21012969Y-20378518D01*
X21035084Y-20374831D01*
X21048392Y-20373347D01*
X23522963Y-20231942D01*
X23591013Y-20247770D01*
X23639706Y-20297877D01*
X23653323Y-20342484D01*
X23655779Y-20365332D01*
X23705069Y-20497485D01*
X23705073Y-20497492D01*
X23713785Y-20509130D01*
X23789597Y-20610403D01*
X23902511Y-20694929D01*
X24034665Y-20744219D01*
X24093085Y-20750500D01*
X24759626Y-20750499D01*
X24826665Y-20770183D01*
X24872420Y-20822987D01*
X24882364Y-20892146D01*
X24863872Y-20941646D01*
X24702198Y-21192647D01*
X24649347Y-21238347D01*
X24597952Y-21249500D01*
X24093087Y-21249500D01*
X24093081Y-21249501D01*
X24034664Y-21255780D01*
X23902514Y-21305069D01*
X23902507Y-21305073D01*
X23789597Y-21389597D01*
X23705073Y-21502507D01*
X23705069Y-21502514D01*
X23655782Y-21634661D01*
X23655781Y-21634665D01*
X23649500Y-21693085D01*
X23649500Y-21693093D01*
X23649500Y-22012957D01*
X23629815Y-22079996D01*
X23577011Y-22125751D01*
X23566604Y-22129946D01*
X21678458Y-22793348D01*
X21608684Y-22796999D01*
X21549673Y-22764040D01*
X21469657Y-22684024D01*
X21359474Y-22610403D01*
X21297598Y-22569059D01*
X21106420Y-22489870D01*
X21106412Y-22489868D01*
X20903469Y-22449500D01*
X20903465Y-22449500D01*
X20696535Y-22449500D01*
X20696530Y-22449500D01*
X20493587Y-22489868D01*
X20493579Y-22489870D01*
X20302403Y-22569058D01*
X20130342Y-22684024D01*
X19984024Y-22830342D01*
X19869058Y-23002403D01*
X19789870Y-23193579D01*
X19789868Y-23193587D01*
X19749500Y-23396530D01*
X19749500Y-23603469D01*
X19789868Y-23806412D01*
X19789870Y-23806420D01*
X19864621Y-23986885D01*
X19869059Y-23997598D01*
X19904073Y-24050000D01*
X19984024Y-24169657D01*
X20130342Y-24315975D01*
X20130345Y-24315977D01*
X20302402Y-24430941D01*
X20493580Y-24510130D01*
X20696530Y-24550499D01*
X20696534Y-24550500D01*
X20696535Y-24550500D01*
X20903466Y-24550500D01*
X20903467Y-24550499D01*
X21106420Y-24510130D01*
X21297598Y-24430941D01*
X21469655Y-24315977D01*
X21469658Y-24315974D01*
X21574676Y-24210957D01*
X21615974Y-24169658D01*
X21615975Y-24169657D01*
X21615977Y-24169655D01*
X21730941Y-23997598D01*
X21810130Y-23806420D01*
X21847728Y-23617401D01*
X21851689Y-23597490D01*
X21853221Y-23597794D01*
X21876519Y-23540091D01*
X21932657Y-23500041D01*
X23607263Y-22911666D01*
X23677036Y-22908016D01*
X23737708Y-22942667D01*
X23747630Y-22954341D01*
X23789597Y-23010403D01*
X23789598Y-23010404D01*
X23900025Y-23093068D01*
X23902511Y-23094929D01*
X24034665Y-23144219D01*
X24093085Y-23150500D01*
X24906914Y-23150499D01*
X24965335Y-23144219D01*
X25097489Y-23094929D01*
X25210403Y-23010403D01*
X25294929Y-22897489D01*
X25344219Y-22765335D01*
X25350500Y-22706915D01*
X25350500Y-22582598D01*
X33749500Y-22582598D01*
X33749500Y-23617401D01*
X33764184Y-23728929D01*
X33764185Y-23728933D01*
X33821668Y-23867711D01*
X33821669Y-23867712D01*
X33913114Y-23986886D01*
X34032288Y-24078331D01*
X34032287Y-24078331D01*
X34108186Y-24109768D01*
X34171070Y-24135816D01*
X34282606Y-24150500D01*
X34282613Y-24150500D01*
X36317393Y-24150500D01*
X36317394Y-24150500D01*
X36368426Y-24143781D01*
X36408799Y-24145102D01*
X36435931Y-24150500D01*
X36435932Y-24150500D01*
X36564071Y-24150500D01*
X36648615Y-24133682D01*
X36689744Y-24125501D01*
X36808127Y-24076465D01*
X36914669Y-24005276D01*
X37005276Y-23914669D01*
X37076465Y-23808127D01*
X37122193Y-23697729D01*
X39100000Y-23697729D01*
X39100000Y-24050000D01*
X39850000Y-24050000D01*
X40150000Y-24050000D01*
X40899999Y-24050000D01*
X40899999Y-23697729D01*
X40889579Y-23610945D01*
X40889577Y-23610941D01*
X40835123Y-23472855D01*
X40835120Y-23472849D01*
X40745428Y-23354571D01*
X40627150Y-23264879D01*
X40627144Y-23264876D01*
X40489056Y-23210421D01*
X40402271Y-23200000D01*
X40150000Y-23200000D01*
X40150000Y-24050000D01*
X39850000Y-24050000D01*
X39850000Y-23200000D01*
X39597729Y-23200000D01*
X39510945Y-23210420D01*
X39510941Y-23210422D01*
X39372855Y-23264876D01*
X39372849Y-23264879D01*
X39254571Y-23354571D01*
X39164879Y-23472849D01*
X39164876Y-23472855D01*
X39110421Y-23610943D01*
X39100000Y-23697729D01*
X37122193Y-23697729D01*
X37125501Y-23689744D01*
X37141176Y-23610943D01*
X37150500Y-23564071D01*
X37150500Y-23435928D01*
X37125502Y-23310261D01*
X37125501Y-23310260D01*
X37125501Y-23310256D01*
X37076465Y-23191873D01*
X37076464Y-23191872D01*
X37076461Y-23191866D01*
X37005276Y-23085331D01*
X37005273Y-23085327D01*
X36914676Y-22994730D01*
X36914671Y-22994726D01*
X36914669Y-22994724D01*
X36905603Y-22988666D01*
X36860802Y-22935053D01*
X36850500Y-22885568D01*
X36850500Y-22582612D01*
X36850499Y-22582598D01*
X36849757Y-22576962D01*
X36835816Y-22471070D01*
X36778331Y-22332288D01*
X36686886Y-22213114D01*
X36567712Y-22121669D01*
X36567711Y-22121668D01*
X36567712Y-22121668D01*
X36428933Y-22064185D01*
X36428931Y-22064184D01*
X36428930Y-22064184D01*
X36414988Y-22062348D01*
X36317401Y-22049500D01*
X36317394Y-22049500D01*
X34282606Y-22049500D01*
X34282598Y-22049500D01*
X34171070Y-22064184D01*
X34171066Y-22064185D01*
X34032288Y-22121668D01*
X33913114Y-22213114D01*
X33821668Y-22332288D01*
X33764185Y-22471066D01*
X33764184Y-22471070D01*
X33749500Y-22582598D01*
X25350500Y-22582598D01*
X25350499Y-21693086D01*
X25344219Y-21634665D01*
X25344218Y-21634661D01*
X25344121Y-21633759D01*
X25356527Y-21565000D01*
X25363154Y-21553375D01*
X25881742Y-20748262D01*
X25890707Y-20737151D01*
X25890525Y-20737012D01*
X25895470Y-20730566D01*
X25895475Y-20730562D01*
X25914138Y-20698234D01*
X25917231Y-20693165D01*
X25937451Y-20661776D01*
X25937452Y-20661769D01*
X25940923Y-20654426D01*
X25941131Y-20654524D01*
X25942013Y-20652533D01*
X25941800Y-20652445D01*
X25944906Y-20644944D01*
X25944910Y-20644938D01*
X25954564Y-20608903D01*
X25956266Y-20603122D01*
X25967653Y-20567630D01*
X25967653Y-20567627D01*
X25969106Y-20559626D01*
X25969331Y-20559667D01*
X25969667Y-20557524D01*
X25969439Y-20557494D01*
X25970500Y-20549435D01*
X25970500Y-20512137D01*
X25970647Y-20506110D01*
X25971066Y-20497492D01*
X25972459Y-20468877D01*
X25972457Y-20468868D01*
X25971791Y-20460774D01*
X25972018Y-20460755D01*
X25970500Y-20446559D01*
X25970500Y-18709828D01*
X25990185Y-18642789D01*
X26006814Y-18622151D01*
X26080700Y-18548266D01*
X26118600Y-18470739D01*
X26165727Y-18419159D01*
X26233261Y-18401244D01*
X26299760Y-18422685D01*
X26341399Y-18470739D01*
X26370280Y-18529815D01*
X26379301Y-18548268D01*
X26466731Y-18635698D01*
X26466732Y-18635698D01*
X26466734Y-18635700D01*
X26577821Y-18690007D01*
X26649839Y-18700500D01*
X27080160Y-18700499D01*
X27152179Y-18690007D01*
X27263266Y-18635700D01*
X27350700Y-18548266D01*
X27388600Y-18470739D01*
X27435727Y-18419159D01*
X27503261Y-18401244D01*
X27569760Y-18422685D01*
X27611399Y-18470739D01*
X27649300Y-18548266D01*
X27649301Y-18548267D01*
X27649302Y-18548269D01*
X27655271Y-18556630D01*
X27652844Y-18558362D01*
X27678449Y-18605254D01*
X27681008Y-18639860D01*
X27628584Y-19426215D01*
X27624638Y-19450044D01*
X27624501Y-19450552D01*
X27624500Y-19450566D01*
X27624500Y-19483369D01*
X27624225Y-19491618D01*
X27622043Y-19524348D01*
X27622144Y-19524861D01*
X27624500Y-19548915D01*
X27624500Y-19549435D01*
X27628721Y-19565190D01*
X27632992Y-19581129D01*
X27634860Y-19589164D01*
X27641223Y-19621340D01*
X27641456Y-19621814D01*
X27649952Y-19644426D01*
X27650088Y-19644934D01*
X27650090Y-19644939D01*
X27666489Y-19673343D01*
X27670374Y-19680620D01*
X27684854Y-19710064D01*
X27685194Y-19710452D01*
X27699261Y-19730105D01*
X27699525Y-19730562D01*
X27699527Y-19730564D01*
X27722714Y-19753751D01*
X27728353Y-19759778D01*
X27749961Y-19784473D01*
X27750390Y-19784760D01*
X27769070Y-19800107D01*
X27769438Y-19800475D01*
X27797839Y-19816872D01*
X27804847Y-19821236D01*
X27832103Y-19839492D01*
X27832106Y-19839494D01*
X27832599Y-19839662D01*
X27854616Y-19849652D01*
X27855062Y-19849910D01*
X27886782Y-19858408D01*
X27894610Y-19860788D01*
X27925697Y-19871380D01*
X27926220Y-19871414D01*
X27950059Y-19875364D01*
X27950565Y-19875500D01*
X27983369Y-19875500D01*
X27991618Y-19875775D01*
X27994557Y-19875970D01*
X28024348Y-19877957D01*
X28024353Y-19877956D01*
X28024860Y-19877856D01*
X28048916Y-19875500D01*
X29825501Y-19875500D01*
X29892540Y-19895185D01*
X29938295Y-19947989D01*
X29949501Y-19999500D01*
X29949501Y-20006918D01*
X29955780Y-20065335D01*
X30005069Y-20197485D01*
X30005073Y-20197492D01*
X30024149Y-20222975D01*
X30089597Y-20310403D01*
X30202511Y-20394929D01*
X30334665Y-20444219D01*
X30393085Y-20450500D01*
X31206914Y-20450499D01*
X31265335Y-20444219D01*
X31397489Y-20394929D01*
X31510403Y-20310403D01*
X31594929Y-20197489D01*
X31644219Y-20065335D01*
X31650500Y-20006915D01*
X31650499Y-18993086D01*
X31644219Y-18934665D01*
X31640244Y-18924008D01*
X31594930Y-18802514D01*
X31594929Y-18802512D01*
X31594929Y-18802511D01*
X31510403Y-18689597D01*
X31401625Y-18608167D01*
X31397492Y-18605073D01*
X31397490Y-18605072D01*
X31397489Y-18605071D01*
X31397487Y-18605070D01*
X31397485Y-18605069D01*
X31265338Y-18555782D01*
X31265337Y-18555781D01*
X31265335Y-18555781D01*
X31206915Y-18549500D01*
X31206906Y-18549500D01*
X31063566Y-18549500D01*
X30996527Y-18529815D01*
X30950772Y-18477011D01*
X30940828Y-18407853D01*
X30969853Y-18344297D01*
X30989253Y-18326235D01*
X31010403Y-18310403D01*
X31094929Y-18197489D01*
X31144219Y-18065335D01*
X31150500Y-18006915D01*
X31150500Y-18002270D01*
X31800001Y-18002270D01*
X31810420Y-18089054D01*
X31810422Y-18089058D01*
X31864876Y-18227144D01*
X31864879Y-18227150D01*
X31954571Y-18345428D01*
X32072849Y-18435120D01*
X32072855Y-18435123D01*
X32210943Y-18489578D01*
X32297729Y-18499999D01*
X32383806Y-18499999D01*
X32450845Y-18519683D01*
X32496601Y-18572486D01*
X32506545Y-18641645D01*
X32483075Y-18698308D01*
X32405072Y-18802508D01*
X32405069Y-18802514D01*
X32358196Y-18928189D01*
X32355781Y-18934665D01*
X32349500Y-18993085D01*
X32349500Y-18993092D01*
X32349500Y-18993093D01*
X32349500Y-20006912D01*
X32349501Y-20006918D01*
X32355780Y-20065335D01*
X32405069Y-20197485D01*
X32405073Y-20197492D01*
X32424149Y-20222975D01*
X32489597Y-20310403D01*
X32602511Y-20394929D01*
X32734665Y-20444219D01*
X32793085Y-20450500D01*
X33606914Y-20450499D01*
X33665335Y-20444219D01*
X33665340Y-20444217D01*
X33797487Y-20394930D01*
X33800298Y-20393395D01*
X33803430Y-20392713D01*
X33805799Y-20391830D01*
X33805925Y-20392170D01*
X33868569Y-20378538D01*
X33934035Y-20402951D01*
X33935218Y-20403847D01*
X34032288Y-20478331D01*
X34032287Y-20478331D01*
X34078547Y-20497492D01*
X34171070Y-20535816D01*
X34282606Y-20550500D01*
X34282613Y-20550500D01*
X36317387Y-20550500D01*
X36317394Y-20550500D01*
X36428930Y-20535816D01*
X36567712Y-20478331D01*
X36686886Y-20386886D01*
X36778331Y-20267712D01*
X36835816Y-20128930D01*
X36850500Y-20017394D01*
X36850500Y-18982606D01*
X36835816Y-18871070D01*
X36778331Y-18732288D01*
X36686886Y-18613114D01*
X36595440Y-18542945D01*
X36567711Y-18521668D01*
X36567712Y-18521668D01*
X36428933Y-18464185D01*
X36428931Y-18464184D01*
X36428930Y-18464184D01*
X36414988Y-18462348D01*
X36317401Y-18449500D01*
X36317394Y-18449500D01*
X34282606Y-18449500D01*
X34282598Y-18449500D01*
X34171070Y-18464184D01*
X34171066Y-18464185D01*
X34032287Y-18521668D01*
X33935218Y-18596152D01*
X33870048Y-18621346D01*
X33805798Y-18608167D01*
X33805798Y-18608170D01*
X33805781Y-18608163D01*
X33801604Y-18607307D01*
X33800310Y-18606611D01*
X33797490Y-18605071D01*
X33665338Y-18555782D01*
X33665337Y-18555781D01*
X33665335Y-18555781D01*
X33606915Y-18549500D01*
X33606906Y-18549500D01*
X33540329Y-18549500D01*
X33473290Y-18529815D01*
X33427535Y-18477011D01*
X33417591Y-18407853D01*
X33441525Y-18350575D01*
X33535120Y-18227150D01*
X33535123Y-18227144D01*
X33589578Y-18089056D01*
X33600000Y-18002270D01*
X33600000Y-17650000D01*
X31800001Y-17650000D01*
X31800001Y-18002270D01*
X31150500Y-18002270D01*
X31150499Y-17471810D01*
X31150499Y-17089643D01*
X31168170Y-17025846D01*
X31175999Y-17012798D01*
X31185040Y-16997729D01*
X31800000Y-16997729D01*
X31800000Y-17350000D01*
X32550000Y-17350000D01*
X32850000Y-17350000D01*
X33599999Y-17350000D01*
X33599999Y-16997729D01*
X33589579Y-16910945D01*
X33589577Y-16910941D01*
X33535123Y-16772855D01*
X33535120Y-16772849D01*
X33445428Y-16654571D01*
X33327150Y-16564879D01*
X33327144Y-16564876D01*
X33189056Y-16510421D01*
X33102271Y-16500000D01*
X32850000Y-16500000D01*
X32850000Y-17350000D01*
X32550000Y-17350000D01*
X32550000Y-16500000D01*
X32297729Y-16500000D01*
X32210945Y-16510420D01*
X32210941Y-16510422D01*
X32072855Y-16564876D01*
X32072849Y-16564879D01*
X31954571Y-16654571D01*
X31864879Y-16772849D01*
X31864876Y-16772855D01*
X31810421Y-16910943D01*
X31800000Y-16997729D01*
X31185040Y-16997729D01*
X31899366Y-15807183D01*
X31912908Y-15788725D01*
X31918193Y-15782766D01*
X31936949Y-15745251D01*
X31941507Y-15736949D01*
X31963076Y-15701003D01*
X31965261Y-15693360D01*
X31973571Y-15672008D01*
X32024813Y-15569524D01*
X32439295Y-14740560D01*
X32442803Y-14734040D01*
X32466392Y-14693186D01*
X32467074Y-14690639D01*
X32475950Y-14667252D01*
X32477129Y-14664895D01*
X32486590Y-14618657D01*
X32488285Y-14611476D01*
X32500500Y-14565892D01*
X32500500Y-14563242D01*
X32503019Y-14538377D01*
X32503549Y-14535787D01*
X32500723Y-14488703D01*
X32500500Y-14481274D01*
X32500500Y-12582598D01*
X33749500Y-12582598D01*
X33749500Y-13617401D01*
X33764184Y-13728929D01*
X33764185Y-13728933D01*
X33821668Y-13867711D01*
X33831112Y-13880019D01*
X33913114Y-13986886D01*
X34032288Y-14078331D01*
X34032287Y-14078331D01*
X34096849Y-14105073D01*
X34171070Y-14135816D01*
X34282606Y-14150500D01*
X34282613Y-14150500D01*
X36317387Y-14150500D01*
X36317394Y-14150500D01*
X36428930Y-14135816D01*
X36567712Y-14078331D01*
X36592858Y-14059035D01*
X36658024Y-14033841D01*
X36726469Y-14047878D01*
X36776460Y-14096691D01*
X36787572Y-14123344D01*
X37107325Y-15242477D01*
X37624078Y-17051114D01*
X37626441Y-17064846D01*
X37626753Y-17064785D01*
X37628314Y-17072760D01*
X37640413Y-17108762D01*
X37642100Y-17114193D01*
X37652527Y-17150686D01*
X37655763Y-17158147D01*
X37655470Y-17158273D01*
X37655952Y-17159319D01*
X37656238Y-17159180D01*
X37659811Y-17166482D01*
X37680812Y-17198118D01*
X37683852Y-17202934D01*
X37703370Y-17235489D01*
X37708424Y-17241855D01*
X37708174Y-17242052D01*
X37708910Y-17242937D01*
X37709150Y-17242729D01*
X37714488Y-17248853D01*
X37742965Y-17273980D01*
X37747137Y-17277835D01*
X37774426Y-17304238D01*
X37774431Y-17304240D01*
X37780953Y-17309077D01*
X37780763Y-17309332D01*
X37792145Y-17317374D01*
X39884876Y-19163900D01*
X39922121Y-19223015D01*
X39921494Y-19292882D01*
X39890520Y-19344557D01*
X39872863Y-19362214D01*
X39872858Y-19362221D01*
X39763371Y-19526079D01*
X39763364Y-19526092D01*
X39687950Y-19708160D01*
X39687947Y-19708170D01*
X39649500Y-19901456D01*
X39649500Y-19901459D01*
X39649500Y-20098541D01*
X39649500Y-20098543D01*
X39649499Y-20098543D01*
X39687947Y-20291829D01*
X39687950Y-20291839D01*
X39763364Y-20473907D01*
X39763371Y-20473920D01*
X39872860Y-20637781D01*
X39872863Y-20637785D01*
X39872897Y-20637819D01*
X39872908Y-20637840D01*
X39876726Y-20642492D01*
X39875843Y-20643215D01*
X39906382Y-20699142D01*
X39901398Y-20768834D01*
X39859526Y-20824767D01*
X39794062Y-20849184D01*
X39785217Y-20849500D01*
X39593088Y-20849500D01*
X39593081Y-20849501D01*
X39534664Y-20855780D01*
X39402514Y-20905069D01*
X39402507Y-20905073D01*
X39289597Y-20989597D01*
X39205073Y-21102507D01*
X39205069Y-21102514D01*
X39155782Y-21234661D01*
X39155781Y-21234665D01*
X39149500Y-21293085D01*
X39149500Y-21293092D01*
X39149500Y-21293093D01*
X39149500Y-22306912D01*
X39149501Y-22306918D01*
X39155780Y-22365335D01*
X39205069Y-22497485D01*
X39205070Y-22497487D01*
X39205071Y-22497489D01*
X39289597Y-22610403D01*
X39402511Y-22694929D01*
X39534665Y-22744219D01*
X39593085Y-22750500D01*
X40406914Y-22750499D01*
X40465335Y-22744219D01*
X40597489Y-22694929D01*
X40710403Y-22610403D01*
X40794929Y-22497489D01*
X40844219Y-22365335D01*
X40850500Y-22306915D01*
X40850499Y-21360669D01*
X40870183Y-21293631D01*
X40876619Y-21284541D01*
X40915412Y-21234665D01*
X41060307Y-21048371D01*
X41117004Y-21007539D01*
X41158187Y-21000500D01*
X42248543Y-21000500D01*
X42378582Y-20974632D01*
X42441835Y-20962051D01*
X42614412Y-20890568D01*
X42623907Y-20886635D01*
X42623907Y-20886634D01*
X42623914Y-20886632D01*
X42787782Y-20777139D01*
X42927139Y-20637782D01*
X43036632Y-20473914D01*
X43112051Y-20291835D01*
X43132207Y-20190505D01*
X43150500Y-20098543D01*
X43150500Y-19901456D01*
X43112052Y-19708170D01*
X43112051Y-19708169D01*
X43112051Y-19708165D01*
X43099111Y-19676925D01*
X43036635Y-19526092D01*
X43036628Y-19526079D01*
X42927139Y-19362218D01*
X42927136Y-19362214D01*
X42787785Y-19222863D01*
X42787781Y-19222860D01*
X42623920Y-19113371D01*
X42623907Y-19113364D01*
X42441839Y-19037950D01*
X42441829Y-19037947D01*
X42248543Y-18999500D01*
X42248541Y-18999500D01*
X40880530Y-18999500D01*
X40813491Y-18979815D01*
X40798489Y-18968480D01*
X38358072Y-16815171D01*
X38320884Y-16756256D01*
X38316673Y-16741517D01*
X37641384Y-14378006D01*
X48150000Y-14378006D01*
X48150000Y-14850000D01*
X49200000Y-14850000D01*
X49200000Y-15150000D01*
X48150000Y-15150000D01*
X48150000Y-15621993D01*
X48188165Y-15862959D01*
X48263560Y-16094998D01*
X48374321Y-16312377D01*
X48517728Y-16509759D01*
X48690240Y-16682271D01*
X48887622Y-16825678D01*
X49105001Y-16936439D01*
X49337040Y-17011833D01*
X49550000Y-17045563D01*
X49550000Y-15977445D01*
X49634174Y-16000000D01*
X49765826Y-16000000D01*
X49850000Y-15977445D01*
X49850000Y-17045562D01*
X50062959Y-17011833D01*
X50294998Y-16936439D01*
X50512377Y-16825678D01*
X50709759Y-16682271D01*
X50882271Y-16509759D01*
X51025678Y-16312377D01*
X51136439Y-16094998D01*
X51211834Y-15862959D01*
X51250000Y-15621993D01*
X51250000Y-15150000D01*
X50200000Y-15150000D01*
X50200000Y-14850000D01*
X51250000Y-14850000D01*
X51250000Y-14378006D01*
X51211834Y-14137040D01*
X51136439Y-13905001D01*
X51025678Y-13687622D01*
X50882271Y-13490240D01*
X50709759Y-13317728D01*
X50512377Y-13174321D01*
X50294996Y-13063560D01*
X50062955Y-12988165D01*
X49850000Y-12954435D01*
X49850000Y-14022554D01*
X49765826Y-14000000D01*
X49634174Y-14000000D01*
X49550000Y-14022554D01*
X49550000Y-12954435D01*
X49337044Y-12988165D01*
X49105003Y-13063560D01*
X48887622Y-13174321D01*
X48690240Y-13317728D01*
X48517728Y-13490240D01*
X48374321Y-13687622D01*
X48263560Y-13905001D01*
X48188165Y-14137040D01*
X48150000Y-14378006D01*
X37641384Y-14378006D01*
X37376710Y-13451647D01*
X37374161Y-13440243D01*
X37373805Y-13439061D01*
X37373805Y-13439058D01*
X37360547Y-13395037D01*
X37360072Y-13393415D01*
X37347471Y-13349309D01*
X37347469Y-13349306D01*
X37347400Y-13349063D01*
X37346776Y-13347677D01*
X37346067Y-13346071D01*
X37345434Y-13344612D01*
X37321154Y-13305391D01*
X37320237Y-13303886D01*
X37296490Y-13264280D01*
X37295511Y-13263082D01*
X37294395Y-13261697D01*
X37293445Y-13260500D01*
X37259829Y-13228887D01*
X37258556Y-13227673D01*
X37225389Y-13195583D01*
X37224181Y-13194714D01*
X37222756Y-13193673D01*
X37221462Y-13192714D01*
X37221228Y-13192588D01*
X37180798Y-13170872D01*
X37179298Y-13170053D01*
X37139144Y-13147746D01*
X37139142Y-13147745D01*
X37138911Y-13147617D01*
X37137433Y-13147057D01*
X37135816Y-13146431D01*
X37134381Y-13145864D01*
X37089390Y-13135277D01*
X37087683Y-13134862D01*
X37042045Y-13123437D01*
X37030525Y-13121427D01*
X36946099Y-13101562D01*
X36885350Y-13067046D01*
X36852906Y-13005166D01*
X36850500Y-12980858D01*
X36850500Y-12582612D01*
X36850499Y-12582598D01*
X36849757Y-12576962D01*
X36835816Y-12471070D01*
X36778331Y-12332288D01*
X36686886Y-12213114D01*
X36567712Y-12121669D01*
X36567711Y-12121668D01*
X36567712Y-12121668D01*
X36428933Y-12064185D01*
X36428931Y-12064184D01*
X36428930Y-12064184D01*
X36414988Y-12062348D01*
X36317401Y-12049500D01*
X36317394Y-12049500D01*
X34282606Y-12049500D01*
X34282598Y-12049500D01*
X34171070Y-12064184D01*
X34171066Y-12064185D01*
X34032288Y-12121668D01*
X33913114Y-12213114D01*
X33821668Y-12332288D01*
X33764185Y-12471066D01*
X33764184Y-12471070D01*
X33749500Y-12582598D01*
X32500500Y-12582598D01*
X32500500Y-10535474D01*
X32520185Y-10468435D01*
X32572989Y-10422680D01*
X32642147Y-10412736D01*
X32667827Y-10419290D01*
X32734665Y-10444219D01*
X32793085Y-10450500D01*
X33606914Y-10450499D01*
X33665335Y-10444219D01*
X33665338Y-10444218D01*
X33797487Y-10394930D01*
X33800298Y-10393395D01*
X33803430Y-10392713D01*
X33805799Y-10391830D01*
X33805925Y-10392170D01*
X33868569Y-10378538D01*
X33934035Y-10402951D01*
X33935218Y-10403847D01*
X34032288Y-10478331D01*
X34032287Y-10478331D01*
X34106610Y-10509116D01*
X34171070Y-10535816D01*
X34282606Y-10550500D01*
X34282613Y-10550500D01*
X36317387Y-10550500D01*
X36317394Y-10550500D01*
X36428930Y-10535816D01*
X36567712Y-10478331D01*
X36686886Y-10386886D01*
X36778331Y-10267712D01*
X36835816Y-10128930D01*
X36850500Y-10017394D01*
X36850500Y-9202270D01*
X43100001Y-9202270D01*
X43110420Y-9289054D01*
X43110422Y-9289058D01*
X43164876Y-9427144D01*
X43164879Y-9427150D01*
X43254571Y-9545428D01*
X43372849Y-9635120D01*
X43372855Y-9635123D01*
X43510943Y-9689578D01*
X43597729Y-9699999D01*
X43849999Y-9699999D01*
X43850000Y-9699998D01*
X43850000Y-8850000D01*
X43100001Y-8850000D01*
X43100001Y-9202270D01*
X36850500Y-9202270D01*
X36850500Y-8982606D01*
X36835816Y-8871070D01*
X36778331Y-8732288D01*
X36686886Y-8613114D01*
X36595440Y-8542945D01*
X36567711Y-8521668D01*
X36567712Y-8521668D01*
X36428933Y-8464185D01*
X36428931Y-8464184D01*
X36428930Y-8464184D01*
X36414988Y-8462348D01*
X36317401Y-8449500D01*
X36317394Y-8449500D01*
X34282606Y-8449500D01*
X34282598Y-8449500D01*
X34171070Y-8464184D01*
X34171066Y-8464185D01*
X34032287Y-8521668D01*
X33935218Y-8596152D01*
X33870048Y-8621346D01*
X33805798Y-8608167D01*
X33805798Y-8608170D01*
X33805781Y-8608163D01*
X33801604Y-8607307D01*
X33800310Y-8606611D01*
X33797490Y-8605071D01*
X33665338Y-8555782D01*
X33665337Y-8555781D01*
X33665335Y-8555781D01*
X33606915Y-8549500D01*
X33606905Y-8549500D01*
X32793087Y-8549500D01*
X32793081Y-8549501D01*
X32734663Y-8555781D01*
X32667832Y-8580707D01*
X32598141Y-8585691D01*
X32536818Y-8552205D01*
X32503334Y-8490882D01*
X32500500Y-8464525D01*
X32500500Y-8197729D01*
X43100000Y-8197729D01*
X43100000Y-8550000D01*
X43850000Y-8550000D01*
X44150000Y-8550000D01*
X44899999Y-8550000D01*
X44899999Y-8197729D01*
X44889579Y-8110945D01*
X44889577Y-8110941D01*
X44835123Y-7972855D01*
X44835120Y-7972849D01*
X44745428Y-7854571D01*
X44627150Y-7764879D01*
X44627144Y-7764876D01*
X44489056Y-7710421D01*
X44402271Y-7700000D01*
X44150000Y-7700000D01*
X44150000Y-8550000D01*
X43850000Y-8550000D01*
X43850000Y-7700000D01*
X43597729Y-7700000D01*
X43510945Y-7710420D01*
X43510941Y-7710422D01*
X43372855Y-7764876D01*
X43372849Y-7764879D01*
X43254571Y-7854571D01*
X43164879Y-7972849D01*
X43164876Y-7972855D01*
X43110421Y-8110943D01*
X43100000Y-8197729D01*
X32500500Y-8197729D01*
X32500500Y-6224438D01*
X32520185Y-6157399D01*
X32568204Y-6113954D01*
X32655405Y-6069524D01*
X32814646Y-5953828D01*
X32953828Y-5814646D01*
X33069524Y-5655405D01*
X33158884Y-5480025D01*
X33219709Y-5292826D01*
X33223687Y-5267711D01*
X33250500Y-5098422D01*
X33250500Y-4901580D01*
X33250499Y-4901574D01*
X33249883Y-4897682D01*
X36700000Y-4897682D01*
X36700000Y-5102317D01*
X36732009Y-5304417D01*
X36795244Y-5499031D01*
X36888141Y-5681350D01*
X36888147Y-5681359D01*
X36980033Y-5807831D01*
X36980035Y-5807832D01*
X37556329Y-5231538D01*
X37599901Y-5307007D01*
X37692993Y-5400099D01*
X37768460Y-5443670D01*
X37192166Y-6019963D01*
X37318650Y-6111859D01*
X37500968Y-6204755D01*
X37695582Y-6267990D01*
X37897683Y-6300000D01*
X38102317Y-6300000D01*
X38304417Y-6267990D01*
X38499031Y-6204755D01*
X38681349Y-6111859D01*
X38807831Y-6019963D01*
X38807832Y-6019963D01*
X38231538Y-5443670D01*
X38307007Y-5400099D01*
X38400099Y-5307007D01*
X38443670Y-5231538D01*
X39019963Y-5807832D01*
X39019963Y-5807831D01*
X39030677Y-5793085D01*
X43149500Y-5793085D01*
X43149500Y-5793092D01*
X43149500Y-5793093D01*
X43149500Y-6806912D01*
X43149501Y-6806918D01*
X43155780Y-6865335D01*
X43205069Y-6997485D01*
X43205073Y-6997492D01*
X43225963Y-7025398D01*
X43289597Y-7110403D01*
X43402511Y-7194929D01*
X43534665Y-7244219D01*
X43593085Y-7250500D01*
X44406914Y-7250499D01*
X44465335Y-7244219D01*
X44597489Y-7194929D01*
X44628422Y-7171773D01*
X44642916Y-7160923D01*
X44708380Y-7136505D01*
X44776605Y-7151330D01*
X44854076Y-7193587D01*
X45759879Y-7687661D01*
X45809305Y-7737043D01*
X45824500Y-7796519D01*
X45824500Y-8875500D01*
X45804815Y-8942539D01*
X45752011Y-8988294D01*
X45700500Y-8999500D01*
X45581903Y-8999500D01*
X45348631Y-9036446D01*
X45123997Y-9109435D01*
X45080293Y-9131704D01*
X45011624Y-9144600D01*
X44946884Y-9118323D01*
X44906628Y-9061216D01*
X44900000Y-9021219D01*
X44900000Y-8850000D01*
X44150000Y-8850000D01*
X44150000Y-9699999D01*
X44221220Y-9699999D01*
X44288259Y-9719684D01*
X44334014Y-9772488D01*
X44343958Y-9841646D01*
X44331705Y-9880293D01*
X44309434Y-9924000D01*
X44236446Y-10148631D01*
X44199500Y-10381902D01*
X44199500Y-10618097D01*
X44236446Y-10851368D01*
X44309433Y-11075996D01*
X44398093Y-11249999D01*
X44416657Y-11286433D01*
X44555483Y-11477510D01*
X44722490Y-11644517D01*
X44913567Y-11783343D01*
X44988784Y-11821668D01*
X45124003Y-11890566D01*
X45124005Y-11890566D01*
X45124008Y-11890568D01*
X45244412Y-11929689D01*
X45348631Y-11963553D01*
X45581903Y-12000500D01*
X45581908Y-12000500D01*
X46818097Y-12000500D01*
X47051368Y-11963553D01*
X47275992Y-11890568D01*
X47486433Y-11783343D01*
X47677510Y-11644517D01*
X47844517Y-11477510D01*
X47983343Y-11286433D01*
X48090568Y-11075992D01*
X48163553Y-10851368D01*
X48186432Y-10706915D01*
X48200500Y-10618097D01*
X48200500Y-10381902D01*
X48163553Y-10148631D01*
X48113013Y-9993086D01*
X48090568Y-9924008D01*
X48090566Y-9924005D01*
X48090566Y-9924003D01*
X48013552Y-9772855D01*
X47983343Y-9713567D01*
X47844517Y-9522490D01*
X47677510Y-9355483D01*
X47486433Y-9216657D01*
X47458197Y-9202270D01*
X47275996Y-9109433D01*
X47051368Y-9036446D01*
X46818097Y-8999500D01*
X46818092Y-8999500D01*
X46699500Y-8999500D01*
X46632461Y-8979815D01*
X46586706Y-8927011D01*
X46575500Y-8875500D01*
X46575500Y-7557098D01*
X46576205Y-7543894D01*
X46576588Y-7540317D01*
X46575536Y-7496935D01*
X46575500Y-7493929D01*
X46575500Y-7450569D01*
X46575500Y-7450565D01*
X46575498Y-7450561D01*
X46575030Y-7447000D01*
X46574994Y-7446535D01*
X46574842Y-7445478D01*
X46574748Y-7445034D01*
X46574191Y-7441476D01*
X46574191Y-7441474D01*
X46561940Y-7399821D01*
X46561130Y-7396937D01*
X46549910Y-7355063D01*
X46548529Y-7351727D01*
X46548374Y-7351290D01*
X46547965Y-7350335D01*
X46547756Y-7349923D01*
X46546293Y-7346621D01*
X46546293Y-7346620D01*
X46523693Y-7309581D01*
X46522158Y-7306995D01*
X46514128Y-7293087D01*
X46500475Y-7269438D01*
X46498287Y-7266587D01*
X46498027Y-7266208D01*
X46497371Y-7265374D01*
X46497061Y-7265029D01*
X46494799Y-7262226D01*
X46494796Y-7262220D01*
X46463372Y-7232284D01*
X46461222Y-7230185D01*
X46430566Y-7199529D01*
X46430562Y-7199525D01*
X46430557Y-7199522D01*
X46427718Y-7197344D01*
X46427354Y-7197032D01*
X46426506Y-7196397D01*
X46426117Y-7196145D01*
X46423207Y-7194021D01*
X46385114Y-7173243D01*
X46382495Y-7171773D01*
X46344936Y-7150089D01*
X46341607Y-7148710D01*
X46329687Y-7143010D01*
X44915121Y-6371429D01*
X44865694Y-6322046D01*
X44850499Y-6262570D01*
X44850499Y-5793087D01*
X44850498Y-5793081D01*
X44844219Y-5734664D01*
X44794930Y-5602514D01*
X44794929Y-5602511D01*
X44710403Y-5489597D01*
X44597489Y-5405071D01*
X44597487Y-5405070D01*
X44597485Y-5405069D01*
X44465338Y-5355782D01*
X44465337Y-5355781D01*
X44465335Y-5355781D01*
X44406915Y-5349500D01*
X44406905Y-5349500D01*
X43593087Y-5349500D01*
X43593081Y-5349501D01*
X43534664Y-5355780D01*
X43402514Y-5405069D01*
X43402507Y-5405073D01*
X43289597Y-5489597D01*
X43205073Y-5602507D01*
X43205069Y-5602514D01*
X43162415Y-5716878D01*
X43155781Y-5734665D01*
X43149500Y-5793085D01*
X39030677Y-5793085D01*
X39086046Y-5716878D01*
X39086048Y-5716876D01*
X39111857Y-5681353D01*
X39204755Y-5499031D01*
X39267990Y-5304417D01*
X39300000Y-5102317D01*
X39300000Y-4897682D01*
X39267990Y-4695582D01*
X39204755Y-4500968D01*
X39111859Y-4318650D01*
X39019963Y-4192167D01*
X39019963Y-4192166D01*
X38443670Y-4768460D01*
X38400099Y-4692993D01*
X38307007Y-4599901D01*
X38231538Y-4556329D01*
X38807832Y-3980035D01*
X38807831Y-3980033D01*
X38681359Y-3888147D01*
X38681350Y-3888141D01*
X38499031Y-3795244D01*
X38304417Y-3732009D01*
X38102317Y-3700000D01*
X37897683Y-3700000D01*
X37695582Y-3732009D01*
X37500968Y-3795244D01*
X37318647Y-3888142D01*
X37192167Y-3980034D01*
X37192167Y-3980035D01*
X37768461Y-4556329D01*
X37692993Y-4599901D01*
X37599901Y-4692993D01*
X37556329Y-4768461D01*
X36980035Y-4192167D01*
X36980034Y-4192167D01*
X36888142Y-4318647D01*
X36795244Y-4500968D01*
X36732009Y-4695582D01*
X36700000Y-4897682D01*
X33249883Y-4897682D01*
X33219709Y-4707173D01*
X33184723Y-4599500D01*
X33158884Y-4519975D01*
X33158882Y-4519972D01*
X33158882Y-4519970D01*
X33111517Y-4427011D01*
X33069524Y-4344595D01*
X32953828Y-4185354D01*
X32814646Y-4046172D01*
X32655405Y-3930476D01*
X32629251Y-3917150D01*
X32480029Y-3841117D01*
X32292826Y-3780290D01*
X32098422Y-3749500D01*
X32098417Y-3749500D01*
X31901583Y-3749500D01*
X31901578Y-3749500D01*
X31707173Y-3780290D01*
X31519970Y-3841117D01*
X31344594Y-3930476D01*
X31272836Y-3982612D01*
X31185354Y-4046172D01*
X31185352Y-4046174D01*
X31185351Y-4046174D01*
X31046174Y-4185351D01*
X31046174Y-4185352D01*
X31046172Y-4185354D01*
X30996485Y-4253741D01*
X30930476Y-4344594D01*
X30841117Y-4519970D01*
X30780290Y-4707173D01*
X30749500Y-4901577D01*
X30749500Y-5098422D01*
X30780290Y-5292826D01*
X30841117Y-5480029D01*
X30902245Y-5599998D01*
X30930476Y-5655405D01*
X31046172Y-5814646D01*
X31185354Y-5953828D01*
X31275251Y-6019142D01*
X31344590Y-6069521D01*
X31344592Y-6069522D01*
X31344595Y-6069524D01*
X31431795Y-6113954D01*
X31482590Y-6161927D01*
X31499500Y-6224438D01*
X31499500Y-6375500D01*
X31479815Y-6442539D01*
X31427011Y-6488294D01*
X31375500Y-6499500D01*
X30623085Y-6499500D01*
X30556046Y-6479815D01*
X30510291Y-6427011D01*
X30499467Y-6385227D01*
X30497776Y-6363739D01*
X30497775Y-6363733D01*
X30466090Y-6254675D01*
X30454742Y-6215614D01*
X30376223Y-6082846D01*
X30376221Y-6082844D01*
X30376218Y-6082840D01*
X30267159Y-5973781D01*
X30267150Y-5973774D01*
X30134384Y-5895257D01*
X30134381Y-5895256D01*
X29986266Y-5852224D01*
X29986260Y-5852223D01*
X29951657Y-5849500D01*
X29951650Y-5849500D01*
X29624500Y-5849500D01*
X29557461Y-5829815D01*
X29511706Y-5777011D01*
X29500500Y-5725500D01*
X29500500Y-4934110D01*
X29500500Y-4934108D01*
X29466392Y-4806814D01*
X29400500Y-4692686D01*
X29307314Y-4599500D01*
X29250250Y-4566554D01*
X29193187Y-4533608D01*
X29129539Y-4516554D01*
X29065892Y-4499500D01*
X29065891Y-4499500D01*
X13474500Y-4499500D01*
X13407461Y-4479815D01*
X13361706Y-4427011D01*
X13350500Y-4375500D01*
X13350500Y-3982612D01*
X13350499Y-3982598D01*
X13342553Y-3922243D01*
X13335816Y-3871070D01*
X13278331Y-3732288D01*
X13186886Y-3613114D01*
X13067712Y-3521669D01*
X13067711Y-3521668D01*
X13067712Y-3521668D01*
X12928933Y-3464185D01*
X12928931Y-3464184D01*
X12928930Y-3464184D01*
X12914988Y-3462348D01*
X12817401Y-3449500D01*
X12817394Y-3449500D01*
X10782606Y-3449500D01*
X10782598Y-3449500D01*
X10671070Y-3464184D01*
X10671066Y-3464185D01*
X10532288Y-3521668D01*
X10413114Y-3613114D01*
X10321668Y-3732288D01*
X10264185Y-3871066D01*
X10264184Y-3871070D01*
X10249500Y-3982598D01*
X9799999Y-3982598D01*
X9799999Y-3957396D01*
X9799998Y-3957374D01*
X9797234Y-3922243D01*
X9753530Y-3771810D01*
X9673792Y-3636980D01*
X9673785Y-3636971D01*
X9563028Y-3526214D01*
X9563019Y-3526207D01*
X9428189Y-3446469D01*
X9277759Y-3402766D01*
X9277754Y-3402765D01*
X9242620Y-3400000D01*
X8350000Y-3400000D01*
X8350000Y-4350000D01*
X8050000Y-4350000D01*
X8050000Y-3400000D01*
X7157396Y-3400000D01*
X7157374Y-3400001D01*
X7122243Y-3402765D01*
X6971810Y-3446469D01*
X6836980Y-3526207D01*
X6836971Y-3526214D01*
X6726214Y-3636971D01*
X6726207Y-3636980D01*
X6646469Y-3771810D01*
X6602766Y-3922240D01*
X6602765Y-3922245D01*
X6600000Y-3957379D01*
X6133100Y-3957379D01*
X6133100Y-2409400D01*
X5633193Y-1909493D01*
X16310000Y-1909493D01*
X16310000Y-2090506D01*
X16338317Y-2269293D01*
X16394251Y-2441444D01*
X16394252Y-2441447D01*
X16476432Y-2602731D01*
X16547424Y-2700442D01*
X16547425Y-2700443D01*
X17016329Y-2231538D01*
X17059901Y-2307007D01*
X17152993Y-2400099D01*
X17228460Y-2443670D01*
X16759555Y-2912574D01*
X16857268Y-2983567D01*
X17018552Y-3065747D01*
X17018555Y-3065748D01*
X17190706Y-3121682D01*
X17369494Y-3150000D01*
X17550506Y-3150000D01*
X17729293Y-3121682D01*
X17901444Y-3065748D01*
X17901447Y-3065747D01*
X18062730Y-2983568D01*
X18160442Y-2912574D01*
X18160443Y-2912574D01*
X17691539Y-2443670D01*
X17767007Y-2400099D01*
X17860099Y-2307007D01*
X17903670Y-2231539D01*
X18372574Y-2700443D01*
X18372574Y-2700442D01*
X18443568Y-2602730D01*
X18525747Y-2441447D01*
X18525748Y-2441444D01*
X18581682Y-2269293D01*
X18610000Y-2090506D01*
X18610000Y-1909493D01*
X18581682Y-1730706D01*
X18525748Y-1558555D01*
X18525747Y-1558552D01*
X18443567Y-1397268D01*
X18372574Y-1299556D01*
X18372574Y-1299555D01*
X17903670Y-1768460D01*
X17860099Y-1692993D01*
X17767007Y-1599901D01*
X17691538Y-1556329D01*
X18122546Y-1125321D01*
X18899500Y-1125321D01*
X18899500Y-2874678D01*
X18914032Y-2947735D01*
X18914033Y-2947739D01*
X18914034Y-2947740D01*
X18969399Y-3030601D01*
X19052260Y-3085966D01*
X19052264Y-3085967D01*
X19125321Y-3100499D01*
X19125324Y-3100500D01*
X19125326Y-3100500D01*
X20874676Y-3100500D01*
X20874677Y-3100499D01*
X20947740Y-3085966D01*
X21030601Y-3030601D01*
X21085966Y-2947740D01*
X21100500Y-2874674D01*
X21100500Y-2624500D01*
X21120185Y-2557461D01*
X21172989Y-2511706D01*
X21224500Y-2500500D01*
X25898657Y-2500500D01*
X25937869Y-2506863D01*
X27414713Y-2999143D01*
X27472087Y-3039017D01*
X27498795Y-3103581D01*
X27499500Y-3116780D01*
X27499500Y-3601657D01*
X27502223Y-3636260D01*
X27502224Y-3636266D01*
X27545256Y-3784381D01*
X27545257Y-3784384D01*
X27545258Y-3784386D01*
X27562820Y-3814082D01*
X27623774Y-3917150D01*
X27623781Y-3917159D01*
X27732840Y-4026218D01*
X27732844Y-4026221D01*
X27732846Y-4026223D01*
X27865614Y-4104742D01*
X27904675Y-4116090D01*
X28013733Y-4147775D01*
X28013736Y-4147775D01*
X28013738Y-4147776D01*
X28048350Y-4150500D01*
X28048358Y-4150500D01*
X29951642Y-4150500D01*
X29951650Y-4150500D01*
X29986262Y-4147776D01*
X29986264Y-4147775D01*
X29986266Y-4147775D01*
X30025323Y-4136427D01*
X30134386Y-4104742D01*
X30267154Y-4026223D01*
X30376223Y-3917154D01*
X30454742Y-3784386D01*
X30486427Y-3675323D01*
X30497775Y-3636266D01*
X30497776Y-3636260D01*
X30500500Y-3601650D01*
X30500500Y-2398350D01*
X30497776Y-2363738D01*
X30454742Y-2215614D01*
X30376223Y-2082846D01*
X30376221Y-2082844D01*
X30376218Y-2082840D01*
X30267159Y-1973781D01*
X30267150Y-1973774D01*
X30134384Y-1895257D01*
X30134381Y-1895256D01*
X29986266Y-1852224D01*
X29986260Y-1852223D01*
X29951657Y-1849500D01*
X29951650Y-1849500D01*
X28048350Y-1849500D01*
X28048342Y-1849500D01*
X28013739Y-1852223D01*
X28013733Y-1852224D01*
X27865618Y-1895256D01*
X27865615Y-1895257D01*
X27732851Y-1973773D01*
X27732841Y-1973781D01*
X27729827Y-1976795D01*
X27726888Y-1978398D01*
X27726685Y-1978557D01*
X27726659Y-1978524D01*
X27668500Y-2010272D01*
X27602944Y-2006740D01*
X26218266Y-1545181D01*
X26195485Y-1534935D01*
X26193191Y-1533611D01*
X26193186Y-1533608D01*
X26193182Y-1533606D01*
X26193180Y-1533606D01*
X26147618Y-1521397D01*
X26140504Y-1519261D01*
X26138926Y-1518735D01*
X26095761Y-1504347D01*
X26095758Y-1504346D01*
X26095757Y-1504346D01*
X26093104Y-1504187D01*
X26068459Y-1500187D01*
X26065894Y-1499500D01*
X26065892Y-1499500D01*
X26018725Y-1499500D01*
X26011295Y-1499277D01*
X25964213Y-1496450D01*
X25961614Y-1496983D01*
X25936756Y-1499500D01*
X21224500Y-1499500D01*
X21157461Y-1479815D01*
X21111706Y-1427011D01*
X21100500Y-1375500D01*
X21100500Y-1125323D01*
X21100499Y-1125321D01*
X21085967Y-1052264D01*
X21085966Y-1052260D01*
X21062028Y-1016434D01*
X21030601Y-969399D01*
X20947740Y-914034D01*
X20947739Y-914033D01*
X20947735Y-914032D01*
X20874677Y-899500D01*
X20874674Y-899500D01*
X19125326Y-899500D01*
X19125323Y-899500D01*
X19052264Y-914032D01*
X19052260Y-914033D01*
X18969399Y-969399D01*
X18914033Y-1052260D01*
X18914032Y-1052264D01*
X18899500Y-1125321D01*
X18122546Y-1125321D01*
X18160442Y-1087425D01*
X18160442Y-1087424D01*
X18062731Y-1016432D01*
X17901447Y-934252D01*
X17901444Y-934251D01*
X17729293Y-878317D01*
X17550506Y-850000D01*
X17369494Y-850000D01*
X17190706Y-878317D01*
X17018555Y-934251D01*
X17018552Y-934252D01*
X16857265Y-1016434D01*
X16759556Y-1087423D01*
X16759556Y-1087425D01*
X17228461Y-1556329D01*
X17152993Y-1599901D01*
X17059901Y-1692993D01*
X17016329Y-1768460D01*
X16547425Y-1299556D01*
X16547423Y-1299556D01*
X16476434Y-1397265D01*
X16394252Y-1558552D01*
X16394251Y-1558555D01*
X16338317Y-1730706D01*
X16310000Y-1909493D01*
X5633193Y-1909493D01*
X4590600Y-866900D01*
X2409400Y-866900D01*
X2409399Y-866900D01*
X866900Y-2409399D01*
X500500Y-2409399D01*
X500500Y-624500D01*
X520185Y-557461D01*
X572989Y-511706D01*
X624500Y-500500D01*
X51375500Y-500500D01*
X51442539Y-520185D01*
G37*
%TD.AperFunction*%
%TD*%
M02*
